<?xml version="1.0" encoding="UTF-8" standalone="no"?>
<!-- Created with Inkscape (http://www.inkscape.org/) -->
<svg
   xmlns:svg="http://www.w3.org/2000/svg"
   xmlns="http://www.w3.org/2000/svg"
   version="1.0"
   width="372"
   height="389.70001"
   id="svg2931"
   xml:space="preserve"><defs
     id="defs2934" /><g
     transform="matrix(1.25,0,0,-1.25,0,389.7)"
     id="g2940"><path
       d="M 1.078125,-5.5195312 L 3.2226562,-5.7070312 C 3.3242154,-4.8476514 3.5605433,-4.142574 3.9316406,-3.5917969 C 4.3027301,-3.0410126 4.8789014,-2.5957005 5.6601562,-2.2558594 C 6.4413998,-1.9160137 7.3203052,-1.746092 8.296875,-1.7460938 C 9.1640533,-1.746092 9.9296776,-1.8749981 10.59375,-2.1328125 C 11.257801,-2.3906226 11.751941,-2.7441379 12.076172,-3.1933594 C 12.400378,-3.6425745 12.562487,-4.1328084 12.5625,-4.6640625 C 12.562487,-5.2031198 12.406238,-5.6738225 12.09375,-6.0761719 C 11.781238,-6.4785091 11.265614,-6.8163994 10.546875,-7.0898438 C 10.085927,-7.269524 9.0663972,-7.5488206 7.4882812,-7.9277344 C 5.9101503,-8.3066323 4.8046827,-8.6640538 4.171875,-9 C 3.3515591,-9.4296781 2.7402316,-9.9628807 2.3378906,-10.599609 C 1.9355449,-11.236317 1.7343733,-11.949207 1.734375,-12.738281 C 1.7343733,-13.605455 1.9804668,-14.416001 2.4726562,-15.169922 C 2.9648408,-15.923812 3.6835901,-16.496077 4.6289062,-16.886719 C 5.5742132,-17.277326 6.6249934,-17.472639 7.78125,-17.472656 C 9.0546784,-17.472639 10.177724,-17.267561 11.150391,-16.857422 C 12.123035,-16.447249 12.871081,-15.843734 13.394531,-15.046875 C 13.917955,-14.249986 14.199205,-13.347643 14.238281,-12.339844 L 12.058594,-12.175781 C 11.941394,-13.261705 11.54491,-14.082017 10.869141,-14.636719 C 10.193349,-15.191391 9.1953033,-15.468735 7.875,-15.46875 C 6.4999935,-15.468735 5.4980414,-15.216782 4.8691406,-14.712891 C 4.2402301,-14.20897 3.9257773,-13.601549 3.9257812,-12.890625 C 3.9257773,-12.273425 4.1484334,-11.765613 4.59375,-11.367188 C 5.031245,-10.968739 6.173822,-10.560536 8.0214844,-10.142578 C 9.8691308,-9.7245997 11.136708,-9.3593656 11.824219,-9.046875 C 12.824206,-8.5859289 13.562486,-8.0019451 14.039062,-7.2949219 C 14.51561,-6.587884 14.753891,-5.7734317 14.753906,-4.8515625 C 14.753891,-3.9374961 14.492173,-3.0761688 13.96875,-2.2675781 C 13.445299,-1.4589829 12.693347,-0.83007729 11.712891,-0.38085938 C 10.732411,0.068359307 9.6288966,0.29296846 8.4023438,0.29296875 C 6.8476494,0.29296846 5.5449163,0.066406184 4.4941406,-0.38671875 C 3.4433559,-0.83984291 2.619138,-1.5214829 2.0214844,-2.4316406 C 1.4238267,-3.3417935 1.1093739,-4.3710894 1.078125,-5.5195312 L 1.078125,-5.5195312 z M 17.601749,-14.753906 L 17.601749,-17.179688 L 19.711124,-17.179688 L 19.711124,-14.753906 L 17.601749,-14.753906 z M 17.601749,0 L 17.601749,-12.445312 L 19.711124,-12.445312 L 19.711124,0 L 17.601749,0 z"
       transform="matrix(1,0,0,-1,59.52,69.12)"
       id="text2942" /><path
       d="M 1.1601562,-8.3671875 C 1.1601551,-11.218739 1.9257793,-13.451158 3.4570312,-15.064453 C 4.9882763,-16.677718 6.9648368,-17.484358 9.3867188,-17.484375 C 10.972645,-17.484358 12.402331,-17.105452 13.675781,-16.347656 C 14.949204,-15.589828 15.919906,-14.533189 16.587891,-13.177734 C 17.255842,-11.822254 17.589826,-10.285146 17.589844,-8.5664062 C 17.589826,-6.8242119 17.238264,-5.2656197 16.535156,-3.890625 C 15.832015,-2.5156225 14.835923,-1.4746079 13.546875,-0.76757812 C 12.2578,-0.060546814 10.867177,0.29296846 9.375,0.29296875 C 7.7578047,0.29296846 6.3124937,-0.097656152 5.0390625,-0.87890625 C 3.7656212,-1.6601546 2.8007784,-2.7265598 2.1445312,-4.078125 C 1.4882798,-5.4296821 1.1601551,-6.8593681 1.1601562,-8.3671875 L 1.1601562,-8.3671875 z M 3.5039062,-8.3320312 C 3.5039027,-6.2617125 4.0605428,-4.6308547 5.1738281,-3.4394531 C 6.2871031,-2.2480446 7.6835861,-1.6523421 9.3632812,-1.6523438 C 11.074208,-1.6523421 12.482409,-2.253904 13.587891,-3.4570312 C 14.693345,-4.6601516 15.246079,-6.3671811 15.246094,-8.578125 C 15.246079,-9.9765525 15.009751,-11.197254 14.537109,-12.240234 C 14.064439,-13.28319 13.373034,-14.091783 12.462891,-14.666016 C 11.552723,-15.240219 10.531239,-15.527328 9.3984375,-15.527344 C 7.7890547,-15.527328 6.4042905,-14.974594 5.2441406,-13.869141 C 4.0839803,-12.763659 3.5039027,-10.917958 3.5039062,-8.3320312 L 3.5039062,-8.3320312 z"
       transform="matrix(1,0,0,-1,96.24,77.52)"
       id="text2946" /><path
       d="M 1.078125,-5.5195312 L 3.2226562,-5.7070312 C 3.3242154,-4.8476514 3.5605433,-4.142574 3.9316406,-3.5917969 C 4.3027301,-3.0410126 4.8789014,-2.5957005 5.6601562,-2.2558594 C 6.4413998,-1.9160137 7.3203052,-1.746092 8.296875,-1.7460938 C 9.1640533,-1.746092 9.9296776,-1.8749981 10.59375,-2.1328125 C 11.257801,-2.3906226 11.751941,-2.7441379 12.076172,-3.1933594 C 12.400378,-3.6425745 12.562487,-4.1328084 12.5625,-4.6640625 C 12.562487,-5.2031198 12.406238,-5.6738225 12.09375,-6.0761719 C 11.781238,-6.4785091 11.265614,-6.8163994 10.546875,-7.0898438 C 10.085927,-7.269524 9.0663972,-7.5488206 7.4882812,-7.9277344 C 5.9101503,-8.3066323 4.8046827,-8.6640538 4.171875,-9 C 3.3515591,-9.4296781 2.7402316,-9.9628807 2.3378906,-10.599609 C 1.9355449,-11.236317 1.7343733,-11.949207 1.734375,-12.738281 C 1.7343733,-13.605455 1.9804668,-14.416001 2.4726562,-15.169922 C 2.9648408,-15.923812 3.6835901,-16.496077 4.6289062,-16.886719 C 5.5742132,-17.277326 6.6249934,-17.472639 7.78125,-17.472656 C 9.0546784,-17.472639 10.177724,-17.267561 11.150391,-16.857422 C 12.123035,-16.447249 12.871081,-15.843734 13.394531,-15.046875 C 13.917955,-14.249986 14.199205,-13.347643 14.238281,-12.339844 L 12.058594,-12.175781 C 11.941394,-13.261705 11.54491,-14.082017 10.869141,-14.636719 C 10.193349,-15.191391 9.1953033,-15.468735 7.875,-15.46875 C 6.4999935,-15.468735 5.4980414,-15.216782 4.8691406,-14.712891 C 4.2402301,-14.20897 3.9257773,-13.601549 3.9257812,-12.890625 C 3.9257773,-12.273425 4.1484334,-11.765613 4.59375,-11.367188 C 5.031245,-10.968739 6.173822,-10.560536 8.0214844,-10.142578 C 9.8691308,-9.7245997 11.136708,-9.3593656 11.824219,-9.046875 C 12.824206,-8.5859289 13.562486,-8.0019451 14.039062,-7.2949219 C 14.51561,-6.587884 14.753891,-5.7734317 14.753906,-4.8515625 C 14.753891,-3.9374961 14.492173,-3.0761688 13.96875,-2.2675781 C 13.445299,-1.4589829 12.693347,-0.83007729 11.712891,-0.38085938 C 10.732411,0.068359307 9.6288966,0.29296846 8.4023438,0.29296875 C 6.8476494,0.29296846 5.5449163,0.066406184 4.4941406,-0.38671875 C 3.4433559,-0.83984291 2.619138,-1.5214829 2.0214844,-2.4316406 C 1.4238267,-3.3417935 1.1093739,-4.3710894 1.078125,-5.5195312 L 1.078125,-5.5195312 z M 17.601749,-14.753906 L 17.601749,-17.179688 L 19.711124,-17.179688 L 19.711124,-14.753906 L 17.601749,-14.753906 z M 17.601749,0 L 17.601749,-12.445312 L 19.711124,-12.445312 L 19.711124,0 L 17.601749,0 z"
       transform="matrix(1,0,0,-1,136.56,69.84)"
       id="text2950" /><path
       d="M 1.1601562,-8.3671875 C 1.1601551,-11.218739 1.9257793,-13.451158 3.4570312,-15.064453 C 4.9882763,-16.677718 6.9648368,-17.484358 9.3867188,-17.484375 C 10.972645,-17.484358 12.402331,-17.105452 13.675781,-16.347656 C 14.949204,-15.589828 15.919906,-14.533189 16.587891,-13.177734 C 17.255842,-11.822254 17.589826,-10.285146 17.589844,-8.5664062 C 17.589826,-6.8242119 17.238264,-5.2656197 16.535156,-3.890625 C 15.832015,-2.5156225 14.835923,-1.4746079 13.546875,-0.76757812 C 12.2578,-0.060546814 10.867177,0.29296846 9.375,0.29296875 C 7.7578047,0.29296846 6.3124937,-0.097656152 5.0390625,-0.87890625 C 3.7656212,-1.6601546 2.8007784,-2.7265598 2.1445312,-4.078125 C 1.4882798,-5.4296821 1.1601551,-6.8593681 1.1601562,-8.3671875 L 1.1601562,-8.3671875 z M 3.5039062,-8.3320312 C 3.5039027,-6.2617125 4.0605428,-4.6308547 5.1738281,-3.4394531 C 6.2871031,-2.2480446 7.6835861,-1.6523421 9.3632812,-1.6523438 C 11.074208,-1.6523421 12.482409,-2.253904 13.587891,-3.4570312 C 14.693345,-4.6601516 15.246079,-6.3671811 15.246094,-8.578125 C 15.246079,-9.9765525 15.009751,-11.197254 14.537109,-12.240234 C 14.064439,-13.28319 13.373034,-14.091783 12.462891,-14.666016 C 11.552723,-15.240219 10.531239,-15.527328 9.3984375,-15.527344 C 7.7890547,-15.527328 6.4042905,-14.974594 5.2441406,-13.869141 C 4.0839803,-12.763659 3.5039027,-10.917958 3.5039062,-8.3320312 L 3.5039062,-8.3320312 z"
       transform="matrix(1,0,0,-1,144.24,107.76)"
       id="text2954" /><path
       d="M 1.078125,-5.5195312 L 3.2226562,-5.7070312 C 3.3242154,-4.8476514 3.5605433,-4.142574 3.9316406,-3.5917969 C 4.3027301,-3.0410126 4.8789014,-2.5957005 5.6601562,-2.2558594 C 6.4413998,-1.9160137 7.3203052,-1.746092 8.296875,-1.7460938 C 9.1640533,-1.746092 9.9296776,-1.8749981 10.59375,-2.1328125 C 11.257801,-2.3906226 11.751941,-2.7441379 12.076172,-3.1933594 C 12.400378,-3.6425745 12.562487,-4.1328084 12.5625,-4.6640625 C 12.562487,-5.2031198 12.406238,-5.6738225 12.09375,-6.0761719 C 11.781238,-6.4785091 11.265614,-6.8163994 10.546875,-7.0898438 C 10.085927,-7.269524 9.0663972,-7.5488206 7.4882812,-7.9277344 C 5.9101503,-8.3066323 4.8046827,-8.6640538 4.171875,-9 C 3.3515591,-9.4296781 2.7402316,-9.9628807 2.3378906,-10.599609 C 1.9355449,-11.236317 1.7343733,-11.949207 1.734375,-12.738281 C 1.7343733,-13.605455 1.9804668,-14.416001 2.4726562,-15.169922 C 2.9648408,-15.923812 3.6835901,-16.496077 4.6289062,-16.886719 C 5.5742132,-17.277326 6.6249934,-17.472639 7.78125,-17.472656 C 9.0546784,-17.472639 10.177724,-17.267561 11.150391,-16.857422 C 12.123035,-16.447249 12.871081,-15.843734 13.394531,-15.046875 C 13.917955,-14.249986 14.199205,-13.347643 14.238281,-12.339844 L 12.058594,-12.175781 C 11.941394,-13.261705 11.54491,-14.082017 10.869141,-14.636719 C 10.193349,-15.191391 9.1953033,-15.468735 7.875,-15.46875 C 6.4999935,-15.468735 5.4980414,-15.216782 4.8691406,-14.712891 C 4.2402301,-14.20897 3.9257773,-13.601549 3.9257812,-12.890625 C 3.9257773,-12.273425 4.1484334,-11.765613 4.59375,-11.367188 C 5.031245,-10.968739 6.173822,-10.560536 8.0214844,-10.142578 C 9.8691308,-9.7245997 11.136708,-9.3593656 11.824219,-9.046875 C 12.824206,-8.5859289 13.562486,-8.0019451 14.039062,-7.2949219 C 14.51561,-6.587884 14.753891,-5.7734317 14.753906,-4.8515625 C 14.753891,-3.9374961 14.492173,-3.0761688 13.96875,-2.2675781 C 13.445299,-1.4589829 12.693347,-0.83007729 11.712891,-0.38085938 C 10.732411,0.068359307 9.6288966,0.29296846 8.4023438,0.29296875 C 6.8476494,0.29296846 5.5449163,0.066406184 4.4941406,-0.38671875 C 3.4433559,-0.83984291 2.619138,-1.5214829 2.0214844,-2.4316406 C 1.4238267,-3.3417935 1.1093739,-4.3710894 1.078125,-5.5195312 L 1.078125,-5.5195312 z M 17.601749,-14.753906 L 17.601749,-17.179688 L 19.711124,-17.179688 L 19.711124,-14.753906 L 17.601749,-14.753906 z M 17.601749,0 L 17.601749,-12.445312 L 19.711124,-12.445312 L 19.711124,0 L 17.601749,0 z"
       transform="matrix(1,0,0,-1,139.92,147.12)"
       id="text2958" /><path
       d="M 1.1601562,-8.3671875 C 1.1601551,-11.218739 1.9257793,-13.451158 3.4570312,-15.064453 C 4.9882763,-16.677718 6.9648368,-17.484358 9.3867188,-17.484375 C 10.972645,-17.484358 12.402331,-17.105452 13.675781,-16.347656 C 14.949204,-15.589828 15.919906,-14.533189 16.587891,-13.177734 C 17.255842,-11.822254 17.589826,-10.285146 17.589844,-8.5664062 C 17.589826,-6.8242119 17.238264,-5.2656197 16.535156,-3.890625 C 15.832015,-2.5156225 14.835923,-1.4746079 13.546875,-0.76757812 C 12.2578,-0.060546814 10.867177,0.29296846 9.375,0.29296875 C 7.7578047,0.29296846 6.3124937,-0.097656152 5.0390625,-0.87890625 C 3.7656212,-1.6601546 2.8007784,-2.7265598 2.1445312,-4.078125 C 1.4882798,-5.4296821 1.1601551,-6.8593681 1.1601562,-8.3671875 L 1.1601562,-8.3671875 z M 3.5039062,-8.3320312 C 3.5039027,-6.2617125 4.0605428,-4.6308547 5.1738281,-3.4394531 C 6.2871031,-2.2480446 7.6835861,-1.6523421 9.3632812,-1.6523438 C 11.074208,-1.6523421 12.482409,-2.253904 13.587891,-3.4570312 C 14.693345,-4.6601516 15.246079,-6.3671811 15.246094,-8.578125 C 15.246079,-9.9765525 15.009751,-11.197254 14.537109,-12.240234 C 14.064439,-13.28319 13.373034,-14.091783 12.462891,-14.666016 C 11.552723,-15.240219 10.531239,-15.527328 9.3984375,-15.527344 C 7.7890547,-15.527328 6.4042905,-14.974594 5.2441406,-13.869141 C 4.0839803,-12.763659 3.5039027,-10.917958 3.5039062,-8.3320312 L 3.5039062,-8.3320312 z"
       transform="matrix(1,0,0,-1,135.36,186.72)"
       id="text2962" /><path
       d="M 1.078125,-5.5195312 L 3.2226562,-5.7070312 C 3.3242154,-4.8476514 3.5605433,-4.142574 3.9316406,-3.5917969 C 4.3027301,-3.0410126 4.8789014,-2.5957005 5.6601562,-2.2558594 C 6.4413998,-1.9160137 7.3203052,-1.746092 8.296875,-1.7460938 C 9.1640533,-1.746092 9.9296776,-1.8749981 10.59375,-2.1328125 C 11.257801,-2.3906226 11.751941,-2.7441379 12.076172,-3.1933594 C 12.400378,-3.6425745 12.562487,-4.1328084 12.5625,-4.6640625 C 12.562487,-5.2031198 12.406238,-5.6738225 12.09375,-6.0761719 C 11.781238,-6.4785091 11.265614,-6.8163994 10.546875,-7.0898438 C 10.085927,-7.269524 9.0663972,-7.5488206 7.4882812,-7.9277344 C 5.9101503,-8.3066323 4.8046827,-8.6640538 4.171875,-9 C 3.3515591,-9.4296781 2.7402316,-9.9628807 2.3378906,-10.599609 C 1.9355449,-11.236317 1.7343733,-11.949207 1.734375,-12.738281 C 1.7343733,-13.605455 1.9804668,-14.416001 2.4726562,-15.169922 C 2.9648408,-15.923812 3.6835901,-16.496077 4.6289062,-16.886719 C 5.5742132,-17.277326 6.6249934,-17.472639 7.78125,-17.472656 C 9.0546784,-17.472639 10.177724,-17.267561 11.150391,-16.857422 C 12.123035,-16.447249 12.871081,-15.843734 13.394531,-15.046875 C 13.917955,-14.249986 14.199205,-13.347643 14.238281,-12.339844 L 12.058594,-12.175781 C 11.941394,-13.261705 11.54491,-14.082017 10.869141,-14.636719 C 10.193349,-15.191391 9.1953033,-15.468735 7.875,-15.46875 C 6.4999935,-15.468735 5.4980414,-15.216782 4.8691406,-14.712891 C 4.2402301,-14.20897 3.9257773,-13.601549 3.9257812,-12.890625 C 3.9257773,-12.273425 4.1484334,-11.765613 4.59375,-11.367188 C 5.031245,-10.968739 6.173822,-10.560536 8.0214844,-10.142578 C 9.8691308,-9.7245997 11.136708,-9.3593656 11.824219,-9.046875 C 12.824206,-8.5859289 13.562486,-8.0019451 14.039062,-7.2949219 C 14.51561,-6.587884 14.753891,-5.7734317 14.753906,-4.8515625 C 14.753891,-3.9374961 14.492173,-3.0761688 13.96875,-2.2675781 C 13.445299,-1.4589829 12.693347,-0.83007729 11.712891,-0.38085938 C 10.732411,0.068359307 9.6288966,0.29296846 8.4023438,0.29296875 C 6.8476494,0.29296846 5.5449163,0.066406184 4.4941406,-0.38671875 C 3.4433559,-0.83984291 2.619138,-1.5214829 2.0214844,-2.4316406 C 1.4238267,-3.3417935 1.1093739,-4.3710894 1.078125,-5.5195312 L 1.078125,-5.5195312 z M 17.601749,-14.753906 L 17.601749,-17.179688 L 19.711124,-17.179688 L 19.711124,-14.753906 L 17.601749,-14.753906 z M 17.601749,0 L 17.601749,-12.445312 L 19.711124,-12.445312 L 19.711124,0 L 17.601749,0 z"
       transform="matrix(1,0,0,-1,138.24,225.12)"
       id="text2966" /><path
       d="M 1.1601562,-8.3671875 C 1.1601551,-11.218739 1.9257793,-13.451158 3.4570312,-15.064453 C 4.9882763,-16.677718 6.9648368,-17.484358 9.3867188,-17.484375 C 10.972645,-17.484358 12.402331,-17.105452 13.675781,-16.347656 C 14.949204,-15.589828 15.919906,-14.533189 16.587891,-13.177734 C 17.255842,-11.822254 17.589826,-10.285146 17.589844,-8.5664062 C 17.589826,-6.8242119 17.238264,-5.2656197 16.535156,-3.890625 C 15.832015,-2.5156225 14.835923,-1.4746079 13.546875,-0.76757812 C 12.2578,-0.060546814 10.867177,0.29296846 9.375,0.29296875 C 7.7578047,0.29296846 6.3124937,-0.097656152 5.0390625,-0.87890625 C 3.7656212,-1.6601546 2.8007784,-2.7265598 2.1445312,-4.078125 C 1.4882798,-5.4296821 1.1601551,-6.8593681 1.1601562,-8.3671875 L 1.1601562,-8.3671875 z M 3.5039062,-8.3320312 C 3.5039027,-6.2617125 4.0605428,-4.6308547 5.1738281,-3.4394531 C 6.2871031,-2.2480446 7.6835861,-1.6523421 9.3632812,-1.6523438 C 11.074208,-1.6523421 12.482409,-2.253904 13.587891,-3.4570312 C 14.693345,-4.6601516 15.246079,-6.3671811 15.246094,-8.578125 C 15.246079,-9.9765525 15.009751,-11.197254 14.537109,-12.240234 C 14.064439,-13.28319 13.373034,-14.091783 12.462891,-14.666016 C 11.552723,-15.240219 10.531239,-15.527328 9.3984375,-15.527344 C 7.7890547,-15.527328 6.4042905,-14.974594 5.2441406,-13.869141 C 4.0839803,-12.763659 3.5039027,-10.917958 3.5039062,-8.3320312 L 3.5039062,-8.3320312 z"
       transform="matrix(1,0,0,-1,97.68,223.2)"
       id="text2970" /><path
       d="M 1.078125,-5.5195312 L 3.2226562,-5.7070312 C 3.3242154,-4.8476514 3.5605433,-4.142574 3.9316406,-3.5917969 C 4.3027301,-3.0410126 4.8789014,-2.5957005 5.6601562,-2.2558594 C 6.4413998,-1.9160137 7.3203052,-1.746092 8.296875,-1.7460938 C 9.1640533,-1.746092 9.9296776,-1.8749981 10.59375,-2.1328125 C 11.257801,-2.3906226 11.751941,-2.7441379 12.076172,-3.1933594 C 12.400378,-3.6425745 12.562487,-4.1328084 12.5625,-4.6640625 C 12.562487,-5.2031198 12.406238,-5.6738225 12.09375,-6.0761719 C 11.781238,-6.4785091 11.265614,-6.8163994 10.546875,-7.0898438 C 10.085927,-7.269524 9.0663972,-7.5488206 7.4882812,-7.9277344 C 5.9101503,-8.3066323 4.8046827,-8.6640538 4.171875,-9 C 3.3515591,-9.4296781 2.7402316,-9.9628807 2.3378906,-10.599609 C 1.9355449,-11.236317 1.7343733,-11.949207 1.734375,-12.738281 C 1.7343733,-13.605455 1.9804668,-14.416001 2.4726562,-15.169922 C 2.9648408,-15.923812 3.6835901,-16.496077 4.6289062,-16.886719 C 5.5742132,-17.277326 6.6249934,-17.472639 7.78125,-17.472656 C 9.0546784,-17.472639 10.177724,-17.267561 11.150391,-16.857422 C 12.123035,-16.447249 12.871081,-15.843734 13.394531,-15.046875 C 13.917955,-14.249986 14.199205,-13.347643 14.238281,-12.339844 L 12.058594,-12.175781 C 11.941394,-13.261705 11.54491,-14.082017 10.869141,-14.636719 C 10.193349,-15.191391 9.1953033,-15.468735 7.875,-15.46875 C 6.4999935,-15.468735 5.4980414,-15.216782 4.8691406,-14.712891 C 4.2402301,-14.20897 3.9257773,-13.601549 3.9257812,-12.890625 C 3.9257773,-12.273425 4.1484334,-11.765613 4.59375,-11.367188 C 5.031245,-10.968739 6.173822,-10.560536 8.0214844,-10.142578 C 9.8691308,-9.7245997 11.136708,-9.3593656 11.824219,-9.046875 C 12.824206,-8.5859289 13.562486,-8.0019451 14.039062,-7.2949219 C 14.51561,-6.587884 14.753891,-5.7734317 14.753906,-4.8515625 C 14.753891,-3.9374961 14.492173,-3.0761688 13.96875,-2.2675781 C 13.445299,-1.4589829 12.693347,-0.83007729 11.712891,-0.38085938 C 10.732411,0.068359307 9.6288966,0.29296846 8.4023438,0.29296875 C 6.8476494,0.29296846 5.5449163,0.066406184 4.4941406,-0.38671875 C 3.4433559,-0.83984291 2.619138,-1.5214829 2.0214844,-2.4316406 C 1.4238267,-3.3417935 1.1093739,-4.3710894 1.078125,-5.5195312 L 1.078125,-5.5195312 z M 17.601749,-14.753906 L 17.601749,-17.179688 L 19.711124,-17.179688 L 19.711124,-14.753906 L 17.601749,-14.753906 z M 17.601749,0 L 17.601749,-12.445312 L 19.711124,-12.445312 L 19.711124,0 L 17.601749,0 z"
       transform="matrix(1,0,0,-1,60.72,222)"
       id="text2974" /><path
       d="M 1.1601562,-8.3671875 C 1.1601551,-11.218739 1.9257793,-13.451158 3.4570312,-15.064453 C 4.9882763,-16.677718 6.9648368,-17.484358 9.3867188,-17.484375 C 10.972645,-17.484358 12.402331,-17.105452 13.675781,-16.347656 C 14.949204,-15.589828 15.919906,-14.533189 16.587891,-13.177734 C 17.255842,-11.822254 17.589826,-10.285146 17.589844,-8.5664062 C 17.589826,-6.8242119 17.238264,-5.2656197 16.535156,-3.890625 C 15.832015,-2.5156225 14.835923,-1.4746079 13.546875,-0.76757812 C 12.2578,-0.060546814 10.867177,0.29296846 9.375,0.29296875 C 7.7578047,0.29296846 6.3124937,-0.097656152 5.0390625,-0.87890625 C 3.7656212,-1.6601546 2.8007784,-2.7265598 2.1445312,-4.078125 C 1.4882798,-5.4296821 1.1601551,-6.8593681 1.1601562,-8.3671875 L 1.1601562,-8.3671875 z M 3.5039062,-8.3320312 C 3.5039027,-6.2617125 4.0605428,-4.6308547 5.1738281,-3.4394531 C 6.2871031,-2.2480446 7.6835861,-1.6523421 9.3632812,-1.6523438 C 11.074208,-1.6523421 12.482409,-2.253904 13.587891,-3.4570312 C 14.693345,-4.6601516 15.246079,-6.3671811 15.246094,-8.578125 C 15.246079,-9.9765525 15.009751,-11.197254 14.537109,-12.240234 C 14.064439,-13.28319 13.373034,-14.091783 12.462891,-14.666016 C 11.552723,-15.240219 10.531239,-15.527328 9.3984375,-15.527344 C 7.7890547,-15.527328 6.4042905,-14.974594 5.2441406,-13.869141 C 4.0839803,-12.763659 3.5039027,-10.917958 3.5039062,-8.3320312 L 3.5039062,-8.3320312 z"
       transform="matrix(1,0,0,-1,53.76,183.6)"
       id="text2978" /><path
       d="M 1.078125,-5.5195312 L 3.2226562,-5.7070312 C 3.3242154,-4.8476514 3.5605433,-4.142574 3.9316406,-3.5917969 C 4.3027301,-3.0410126 4.8789014,-2.5957005 5.6601562,-2.2558594 C 6.4413998,-1.9160137 7.3203052,-1.746092 8.296875,-1.7460938 C 9.1640533,-1.746092 9.9296776,-1.8749981 10.59375,-2.1328125 C 11.257801,-2.3906226 11.751941,-2.7441379 12.076172,-3.1933594 C 12.400378,-3.6425745 12.562487,-4.1328084 12.5625,-4.6640625 C 12.562487,-5.2031198 12.406238,-5.6738225 12.09375,-6.0761719 C 11.781238,-6.4785091 11.265614,-6.8163994 10.546875,-7.0898438 C 10.085927,-7.269524 9.0663972,-7.5488206 7.4882812,-7.9277344 C 5.9101503,-8.3066323 4.8046827,-8.6640538 4.171875,-9 C 3.3515591,-9.4296781 2.7402316,-9.9628807 2.3378906,-10.599609 C 1.9355449,-11.236317 1.7343733,-11.949207 1.734375,-12.738281 C 1.7343733,-13.605455 1.9804668,-14.416001 2.4726562,-15.169922 C 2.9648408,-15.923812 3.6835901,-16.496077 4.6289062,-16.886719 C 5.5742132,-17.277326 6.6249934,-17.472639 7.78125,-17.472656 C 9.0546784,-17.472639 10.177724,-17.267561 11.150391,-16.857422 C 12.123035,-16.447249 12.871081,-15.843734 13.394531,-15.046875 C 13.917955,-14.249986 14.199205,-13.347643 14.238281,-12.339844 L 12.058594,-12.175781 C 11.941394,-13.261705 11.54491,-14.082017 10.869141,-14.636719 C 10.193349,-15.191391 9.1953033,-15.468735 7.875,-15.46875 C 6.4999935,-15.468735 5.4980414,-15.216782 4.8691406,-14.712891 C 4.2402301,-14.20897 3.9257773,-13.601549 3.9257812,-12.890625 C 3.9257773,-12.273425 4.1484334,-11.765613 4.59375,-11.367188 C 5.031245,-10.968739 6.173822,-10.560536 8.0214844,-10.142578 C 9.8691308,-9.7245997 11.136708,-9.3593656 11.824219,-9.046875 C 12.824206,-8.5859289 13.562486,-8.0019451 14.039062,-7.2949219 C 14.51561,-6.587884 14.753891,-5.7734317 14.753906,-4.8515625 C 14.753891,-3.9374961 14.492173,-3.0761688 13.96875,-2.2675781 C 13.445299,-1.4589829 12.693347,-0.83007729 11.712891,-0.38085938 C 10.732411,0.068359307 9.6288966,0.29296846 8.4023438,0.29296875 C 6.8476494,0.29296846 5.5449163,0.066406184 4.4941406,-0.38671875 C 3.4433559,-0.83984291 2.619138,-1.5214829 2.0214844,-2.4316406 C 1.4238267,-3.3417935 1.1093739,-4.3710894 1.078125,-5.5195312 L 1.078125,-5.5195312 z M 17.601749,-14.753906 L 17.601749,-17.179688 L 19.711124,-17.179688 L 19.711124,-14.753906 L 17.601749,-14.753906 z M 17.601749,0 L 17.601749,-12.445312 L 19.711124,-12.445312 L 19.711124,0 L 17.601749,0 z"
       transform="matrix(1,0,0,-1,61.68,144.48)"
       id="text2982" /><path
       d="M 1.1601562,-8.3671875 C 1.1601551,-11.218739 1.9257793,-13.451158 3.4570312,-15.064453 C 4.9882763,-16.677718 6.9648368,-17.484358 9.3867188,-17.484375 C 10.972645,-17.484358 12.402331,-17.105452 13.675781,-16.347656 C 14.949204,-15.589828 15.919906,-14.533189 16.587891,-13.177734 C 17.255842,-11.822254 17.589826,-10.285146 17.589844,-8.5664062 C 17.589826,-6.8242119 17.238264,-5.2656197 16.535156,-3.890625 C 15.832015,-2.5156225 14.835923,-1.4746079 13.546875,-0.76757812 C 12.2578,-0.060546814 10.867177,0.29296846 9.375,0.29296875 C 7.7578047,0.29296846 6.3124937,-0.097656152 5.0390625,-0.87890625 C 3.7656212,-1.6601546 2.8007784,-2.7265598 2.1445312,-4.078125 C 1.4882798,-5.4296821 1.1601551,-6.8593681 1.1601562,-8.3671875 L 1.1601562,-8.3671875 z M 3.5039062,-8.3320312 C 3.5039027,-6.2617125 4.0605428,-4.6308547 5.1738281,-3.4394531 C 6.2871031,-2.2480446 7.6835861,-1.6523421 9.3632812,-1.6523438 C 11.074208,-1.6523421 12.482409,-2.253904 13.587891,-3.4570312 C 14.693345,-4.6601516 15.246079,-6.3671811 15.246094,-8.578125 C 15.246079,-9.9765525 15.009751,-11.197254 14.537109,-12.240234 C 14.064439,-13.28319 13.373034,-14.091783 12.462891,-14.666016 C 11.552723,-15.240219 10.531239,-15.527328 9.3984375,-15.527344 C 7.7890547,-15.527328 6.4042905,-14.974594 5.2441406,-13.869141 C 4.0839803,-12.763659 3.5039027,-10.917958 3.5039062,-8.3320312 L 3.5039062,-8.3320312 z"
       transform="matrix(1,0,0,-1,43.2,106.8)"
       id="text2986" /><path
       d="M 1.1601562,-8.3671875 C 1.1601551,-11.218739 1.9257793,-13.451158 3.4570312,-15.064453 C 4.9882763,-16.677718 6.9648368,-17.484358 9.3867188,-17.484375 C 10.972645,-17.484358 12.402331,-17.105452 13.675781,-16.347656 C 14.949204,-15.589828 15.919906,-14.533189 16.587891,-13.177734 C 17.255842,-11.822254 17.589826,-10.285146 17.589844,-8.5664062 C 17.589826,-6.8242119 17.238264,-5.2656197 16.535156,-3.890625 C 15.832015,-2.5156225 14.835923,-1.4746079 13.546875,-0.76757812 C 12.2578,-0.060546814 10.867177,0.29296846 9.375,0.29296875 C 7.7578047,0.29296846 6.3124937,-0.097656152 5.0390625,-0.87890625 C 3.7656212,-1.6601546 2.8007784,-2.7265598 2.1445312,-4.078125 C 1.4882798,-5.4296821 1.1601551,-6.8593681 1.1601562,-8.3671875 L 1.1601562,-8.3671875 z M 3.5039062,-8.3320312 C 3.5039027,-6.2617125 4.0605428,-4.6308547 5.1738281,-3.4394531 C 6.2871031,-2.2480446 7.6835861,-1.6523421 9.3632812,-1.6523438 C 11.074208,-1.6523421 12.482409,-2.253904 13.587891,-3.4570312 C 14.693345,-4.6601516 15.246079,-6.3671811 15.246094,-8.578125 C 15.246079,-9.9765525 15.009751,-11.197254 14.537109,-12.240234 C 14.064439,-13.28319 13.373034,-14.091783 12.462891,-14.666016 C 11.552723,-15.240219 10.531239,-15.527328 9.3984375,-15.527344 C 7.7890547,-15.527328 6.4042905,-14.974594 5.2441406,-13.869141 C 4.0839803,-12.763659 3.5039027,-10.917958 3.5039062,-8.3320312 L 3.5039062,-8.3320312 z"
       transform="matrix(1,0,0,-1,98.88,142.56)"
       id="text2990" /><path
       d="M 1.1601562,-8.3671875 C 1.1601551,-11.218739 1.9257793,-13.451158 3.4570312,-15.064453 C 4.9882763,-16.677718 6.9648368,-17.484358 9.3867188,-17.484375 C 10.972645,-17.484358 12.402331,-17.105452 13.675781,-16.347656 C 14.949204,-15.589828 15.919906,-14.533189 16.587891,-13.177734 C 17.255842,-11.822254 17.589826,-10.285146 17.589844,-8.5664062 C 17.589826,-6.8242119 17.238264,-5.2656197 16.535156,-3.890625 C 15.832015,-2.5156225 14.835923,-1.4746079 13.546875,-0.76757812 C 12.2578,-0.060546814 10.867177,0.29296846 9.375,0.29296875 C 7.7578047,0.29296846 6.3124937,-0.097656152 5.0390625,-0.87890625 C 3.7656212,-1.6601546 2.8007784,-2.7265598 2.1445312,-4.078125 C 1.4882798,-5.4296821 1.1601551,-6.8593681 1.1601562,-8.3671875 L 1.1601562,-8.3671875 z M 3.5039062,-8.3320312 C 3.5039027,-6.2617125 4.0605428,-4.6308547 5.1738281,-3.4394531 C 6.2871031,-2.2480446 7.6835861,-1.6523421 9.3632812,-1.6523438 C 11.074208,-1.6523421 12.482409,-2.253904 13.587891,-3.4570312 C 14.693345,-4.6601516 15.246079,-6.3671811 15.246094,-8.578125 C 15.246079,-9.9765525 15.009751,-11.197254 14.537109,-12.240234 C 14.064439,-13.28319 13.373034,-14.091783 12.462891,-14.666016 C 11.552723,-15.240219 10.531239,-15.527328 9.3984375,-15.527344 C 7.7890547,-15.527328 6.4042905,-14.974594 5.2441406,-13.869141 C 4.0839803,-12.763659 3.5039027,-10.917958 3.5039062,-8.3320312 L 3.5039062,-8.3320312 z"
       transform="matrix(1,0,0,-1,17.52,149.52)"
       id="text2994" /><path
       d="M 1.1601562,-8.3671875 C 1.1601551,-11.218739 1.9257793,-13.451158 3.4570312,-15.064453 C 4.9882763,-16.677718 6.9648368,-17.484358 9.3867188,-17.484375 C 10.972645,-17.484358 12.402331,-17.105452 13.675781,-16.347656 C 14.949204,-15.589828 15.919906,-14.533189 16.587891,-13.177734 C 17.255842,-11.822254 17.589826,-10.285146 17.589844,-8.5664062 C 17.589826,-6.8242119 17.238264,-5.2656197 16.535156,-3.890625 C 15.832015,-2.5156225 14.835923,-1.4746079 13.546875,-0.76757812 C 12.2578,-0.060546814 10.867177,0.29296846 9.375,0.29296875 C 7.7578047,0.29296846 6.3124937,-0.097656152 5.0390625,-0.87890625 C 3.7656212,-1.6601546 2.8007784,-2.7265598 2.1445312,-4.078125 C 1.4882798,-5.4296821 1.1601551,-6.8593681 1.1601562,-8.3671875 L 1.1601562,-8.3671875 z M 3.5039062,-8.3320312 C 3.5039027,-6.2617125 4.0605428,-4.6308547 5.1738281,-3.4394531 C 6.2871031,-2.2480446 7.6835861,-1.6523421 9.3632812,-1.6523438 C 11.074208,-1.6523421 12.482409,-2.253904 13.587891,-3.4570312 C 14.693345,-4.6601516 15.246079,-6.3671811 15.246094,-8.578125 C 15.246079,-9.9765525 15.009751,-11.197254 14.537109,-12.240234 C 14.064439,-13.28319 13.373034,-14.091783 12.462891,-14.666016 C 11.552723,-15.240219 10.531239,-15.527328 9.3984375,-15.527344 C 7.7890547,-15.527328 6.4042905,-14.974594 5.2441406,-13.869141 C 4.0839803,-12.763659 3.5039027,-10.917958 3.5039062,-8.3320312 L 3.5039062,-8.3320312 z"
       transform="matrix(1,0,0,-1,175.68,232.08)"
       id="text2998" /><path
       d="M 1.078125,-5.5195312 L 3.2226562,-5.7070312 C 3.3242154,-4.8476514 3.5605433,-4.142574 3.9316406,-3.5917969 C 4.3027301,-3.0410126 4.8789014,-2.5957005 5.6601562,-2.2558594 C 6.4413998,-1.9160137 7.3203052,-1.746092 8.296875,-1.7460938 C 9.1640533,-1.746092 9.9296776,-1.8749981 10.59375,-2.1328125 C 11.257801,-2.3906226 11.751941,-2.7441379 12.076172,-3.1933594 C 12.400378,-3.6425745 12.562487,-4.1328084 12.5625,-4.6640625 C 12.562487,-5.2031198 12.406238,-5.6738225 12.09375,-6.0761719 C 11.781238,-6.4785091 11.265614,-6.8163994 10.546875,-7.0898438 C 10.085927,-7.269524 9.0663972,-7.5488206 7.4882812,-7.9277344 C 5.9101503,-8.3066323 4.8046827,-8.6640538 4.171875,-9 C 3.3515591,-9.4296781 2.7402316,-9.9628807 2.3378906,-10.599609 C 1.9355449,-11.236317 1.7343733,-11.949207 1.734375,-12.738281 C 1.7343733,-13.605455 1.9804668,-14.416001 2.4726562,-15.169922 C 2.9648408,-15.923812 3.6835901,-16.496077 4.6289062,-16.886719 C 5.5742132,-17.277326 6.6249934,-17.472639 7.78125,-17.472656 C 9.0546784,-17.472639 10.177724,-17.267561 11.150391,-16.857422 C 12.123035,-16.447249 12.871081,-15.843734 13.394531,-15.046875 C 13.917955,-14.249986 14.199205,-13.347643 14.238281,-12.339844 L 12.058594,-12.175781 C 11.941394,-13.261705 11.54491,-14.082017 10.869141,-14.636719 C 10.193349,-15.191391 9.1953033,-15.468735 7.875,-15.46875 C 6.4999935,-15.468735 5.4980414,-15.216782 4.8691406,-14.712891 C 4.2402301,-14.20897 3.9257773,-13.601549 3.9257812,-12.890625 C 3.9257773,-12.273425 4.1484334,-11.765613 4.59375,-11.367188 C 5.031245,-10.968739 6.173822,-10.560536 8.0214844,-10.142578 C 9.8691308,-9.7245997 11.136708,-9.3593656 11.824219,-9.046875 C 12.824206,-8.5859289 13.562486,-8.0019451 14.039062,-7.2949219 C 14.51561,-6.587884 14.753891,-5.7734317 14.753906,-4.8515625 C 14.753891,-3.9374961 14.492173,-3.0761688 13.96875,-2.2675781 C 13.445299,-1.4589829 12.693347,-0.83007729 11.712891,-0.38085938 C 10.732411,0.068359307 9.6288966,0.29296846 8.4023438,0.29296875 C 6.8476494,0.29296846 5.5449163,0.066406184 4.4941406,-0.38671875 C 3.4433559,-0.83984291 2.619138,-1.5214829 2.0214844,-2.4316406 C 1.4238267,-3.3417935 1.1093739,-4.3710894 1.078125,-5.5195312 L 1.078125,-5.5195312 z M 17.601749,-14.753906 L 17.601749,-17.179688 L 19.711124,-17.179688 L 19.711124,-14.753906 L 17.601749,-14.753906 z M 17.601749,0 L 17.601749,-12.445312 L 19.711124,-12.445312 L 19.711124,0 L 17.601749,0 z"
       transform="matrix(1,0,0,-1,215.28,223.44)"
       id="text3002" /><path
       d="M 1.1601562,-8.3671875 C 1.1601551,-11.218739 1.9257793,-13.451158 3.4570312,-15.064453 C 4.9882763,-16.677718 6.9648368,-17.484358 9.3867188,-17.484375 C 10.972645,-17.484358 12.402331,-17.105452 13.675781,-16.347656 C 14.949204,-15.589828 15.919906,-14.533189 16.587891,-13.177734 C 17.255842,-11.822254 17.589826,-10.285146 17.589844,-8.5664062 C 17.589826,-6.8242119 17.238264,-5.2656197 16.535156,-3.890625 C 15.832015,-2.5156225 14.835923,-1.4746079 13.546875,-0.76757812 C 12.2578,-0.060546814 10.867177,0.29296846 9.375,0.29296875 C 7.7578047,0.29296846 6.3124937,-0.097656152 5.0390625,-0.87890625 C 3.7656212,-1.6601546 2.8007784,-2.7265598 2.1445312,-4.078125 C 1.4882798,-5.4296821 1.1601551,-6.8593681 1.1601562,-8.3671875 L 1.1601562,-8.3671875 z M 3.5039062,-8.3320312 C 3.5039027,-6.2617125 4.0605428,-4.6308547 5.1738281,-3.4394531 C 6.2871031,-2.2480446 7.6835861,-1.6523421 9.3632812,-1.6523438 C 11.074208,-1.6523421 12.482409,-2.253904 13.587891,-3.4570312 C 14.693345,-4.6601516 15.246079,-6.3671811 15.246094,-8.578125 C 15.246079,-9.9765525 15.009751,-11.197254 14.537109,-12.240234 C 14.064439,-13.28319 13.373034,-14.091783 12.462891,-14.666016 C 11.552723,-15.240219 10.531239,-15.527328 9.3984375,-15.527344 C 7.7890547,-15.527328 6.4042905,-14.974594 5.2441406,-13.869141 C 4.0839803,-12.763659 3.5039027,-10.917958 3.5039062,-8.3320312 L 3.5039062,-8.3320312 z"
       transform="matrix(1,0,0,-1,221.76,185.28)"
       id="text3006" /><path
       d="M 1.078125,-5.5195312 L 3.2226562,-5.7070312 C 3.3242154,-4.8476514 3.5605433,-4.142574 3.9316406,-3.5917969 C 4.3027301,-3.0410126 4.8789014,-2.5957005 5.6601562,-2.2558594 C 6.4413998,-1.9160137 7.3203052,-1.746092 8.296875,-1.7460938 C 9.1640533,-1.746092 9.9296776,-1.8749981 10.59375,-2.1328125 C 11.257801,-2.3906226 11.751941,-2.7441379 12.076172,-3.1933594 C 12.400378,-3.6425745 12.562487,-4.1328084 12.5625,-4.6640625 C 12.562487,-5.2031198 12.406238,-5.6738225 12.09375,-6.0761719 C 11.781238,-6.4785091 11.265614,-6.8163994 10.546875,-7.0898438 C 10.085927,-7.269524 9.0663972,-7.5488206 7.4882812,-7.9277344 C 5.9101503,-8.3066323 4.8046827,-8.6640538 4.171875,-9 C 3.3515591,-9.4296781 2.7402316,-9.9628807 2.3378906,-10.599609 C 1.9355449,-11.236317 1.7343733,-11.949207 1.734375,-12.738281 C 1.7343733,-13.605455 1.9804668,-14.416001 2.4726562,-15.169922 C 2.9648408,-15.923812 3.6835901,-16.496077 4.6289062,-16.886719 C 5.5742132,-17.277326 6.6249934,-17.472639 7.78125,-17.472656 C 9.0546784,-17.472639 10.177724,-17.267561 11.150391,-16.857422 C 12.123035,-16.447249 12.871081,-15.843734 13.394531,-15.046875 C 13.917955,-14.249986 14.199205,-13.347643 14.238281,-12.339844 L 12.058594,-12.175781 C 11.941394,-13.261705 11.54491,-14.082017 10.869141,-14.636719 C 10.193349,-15.191391 9.1953033,-15.468735 7.875,-15.46875 C 6.4999935,-15.468735 5.4980414,-15.216782 4.8691406,-14.712891 C 4.2402301,-14.20897 3.9257773,-13.601549 3.9257812,-12.890625 C 3.9257773,-12.273425 4.1484334,-11.765613 4.59375,-11.367188 C 5.031245,-10.968739 6.173822,-10.560536 8.0214844,-10.142578 C 9.8691308,-9.7245997 11.136708,-9.3593656 11.824219,-9.046875 C 12.824206,-8.5859289 13.562486,-8.0019451 14.039062,-7.2949219 C 14.51561,-6.587884 14.753891,-5.7734317 14.753906,-4.8515625 C 14.753891,-3.9374961 14.492173,-3.0761688 13.96875,-2.2675781 C 13.445299,-1.4589829 12.693347,-0.83007729 11.712891,-0.38085938 C 10.732411,0.068359307 9.6288966,0.29296846 8.4023438,0.29296875 C 6.8476494,0.29296846 5.5449163,0.066406184 4.4941406,-0.38671875 C 3.4433559,-0.83984291 2.619138,-1.5214829 2.0214844,-2.4316406 C 1.4238267,-3.3417935 1.1093739,-4.3710894 1.078125,-5.5195312 L 1.078125,-5.5195312 z M 17.601749,-14.753906 L 17.601749,-17.179688 L 19.711124,-17.179688 L 19.711124,-14.753906 L 17.601749,-14.753906 z M 17.601749,0 L 17.601749,-12.445312 L 19.711124,-12.445312 L 19.711124,0 L 17.601749,0 z"
       transform="matrix(1,0,0,-1,217.68,146.16)"
       id="text3010" /><path
       d="M 1.1601562,-8.3671875 C 1.1601551,-11.218739 1.9257793,-13.451158 3.4570312,-15.064453 C 4.9882763,-16.677718 6.9648368,-17.484358 9.3867188,-17.484375 C 10.972645,-17.484358 12.402331,-17.105452 13.675781,-16.347656 C 14.949204,-15.589828 15.919906,-14.533189 16.587891,-13.177734 C 17.255842,-11.822254 17.589826,-10.285146 17.589844,-8.5664062 C 17.589826,-6.8242119 17.238264,-5.2656197 16.535156,-3.890625 C 15.832015,-2.5156225 14.835923,-1.4746079 13.546875,-0.76757812 C 12.2578,-0.060546814 10.867177,0.29296846 9.375,0.29296875 C 7.7578047,0.29296846 6.3124937,-0.097656152 5.0390625,-0.87890625 C 3.7656212,-1.6601546 2.8007784,-2.7265598 2.1445312,-4.078125 C 1.4882798,-5.4296821 1.1601551,-6.8593681 1.1601562,-8.3671875 L 1.1601562,-8.3671875 z M 3.5039062,-8.3320312 C 3.5039027,-6.2617125 4.0605428,-4.6308547 5.1738281,-3.4394531 C 6.2871031,-2.2480446 7.6835861,-1.6523421 9.3632812,-1.6523438 C 11.074208,-1.6523421 12.482409,-2.253904 13.587891,-3.4570312 C 14.693345,-4.6601516 15.246079,-6.3671811 15.246094,-8.578125 C 15.246079,-9.9765525 15.009751,-11.197254 14.537109,-12.240234 C 14.064439,-13.28319 13.373034,-14.091783 12.462891,-14.666016 C 11.552723,-15.240219 10.531239,-15.527328 9.3984375,-15.527344 C 7.7890547,-15.527328 6.4042905,-14.974594 5.2441406,-13.869141 C 4.0839803,-12.763659 3.5039027,-10.917958 3.5039062,-8.3320312 L 3.5039062,-8.3320312 z"
       transform="matrix(1,0,0,-1,216.72,106.8)"
       id="text3014" /><path
       d="M 1.078125,-5.5195312 L 3.2226562,-5.7070312 C 3.3242154,-4.8476514 3.5605433,-4.142574 3.9316406,-3.5917969 C 4.3027301,-3.0410126 4.8789014,-2.5957005 5.6601562,-2.2558594 C 6.4413998,-1.9160137 7.3203052,-1.746092 8.296875,-1.7460938 C 9.1640533,-1.746092 9.9296776,-1.8749981 10.59375,-2.1328125 C 11.257801,-2.3906226 11.751941,-2.7441379 12.076172,-3.1933594 C 12.400378,-3.6425745 12.562487,-4.1328084 12.5625,-4.6640625 C 12.562487,-5.2031198 12.406238,-5.6738225 12.09375,-6.0761719 C 11.781238,-6.4785091 11.265614,-6.8163994 10.546875,-7.0898438 C 10.085927,-7.269524 9.0663972,-7.5488206 7.4882812,-7.9277344 C 5.9101503,-8.3066323 4.8046827,-8.6640538 4.171875,-9 C 3.3515591,-9.4296781 2.7402316,-9.9628807 2.3378906,-10.599609 C 1.9355449,-11.236317 1.7343733,-11.949207 1.734375,-12.738281 C 1.7343733,-13.605455 1.9804668,-14.416001 2.4726562,-15.169922 C 2.9648408,-15.923812 3.6835901,-16.496077 4.6289062,-16.886719 C 5.5742132,-17.277326 6.6249934,-17.472639 7.78125,-17.472656 C 9.0546784,-17.472639 10.177724,-17.267561 11.150391,-16.857422 C 12.123035,-16.447249 12.871081,-15.843734 13.394531,-15.046875 C 13.917955,-14.249986 14.199205,-13.347643 14.238281,-12.339844 L 12.058594,-12.175781 C 11.941394,-13.261705 11.54491,-14.082017 10.869141,-14.636719 C 10.193349,-15.191391 9.1953033,-15.468735 7.875,-15.46875 C 6.4999935,-15.468735 5.4980414,-15.216782 4.8691406,-14.712891 C 4.2402301,-14.20897 3.9257773,-13.601549 3.9257812,-12.890625 C 3.9257773,-12.273425 4.1484334,-11.765613 4.59375,-11.367188 C 5.031245,-10.968739 6.173822,-10.560536 8.0214844,-10.142578 C 9.8691308,-9.7245997 11.136708,-9.3593656 11.824219,-9.046875 C 12.824206,-8.5859289 13.562486,-8.0019451 14.039062,-7.2949219 C 14.51561,-6.587884 14.753891,-5.7734317 14.753906,-4.8515625 C 14.753891,-3.9374961 14.492173,-3.0761688 13.96875,-2.2675781 C 13.445299,-1.4589829 12.693347,-0.83007729 11.712891,-0.38085938 C 10.732411,0.068359307 9.6288966,0.29296846 8.4023438,0.29296875 C 6.8476494,0.29296846 5.5449163,0.066406184 4.4941406,-0.38671875 C 3.4433559,-0.83984291 2.619138,-1.5214829 2.0214844,-2.4316406 C 1.4238267,-3.3417935 1.1093739,-4.3710894 1.078125,-5.5195312 L 1.078125,-5.5195312 z M 17.601749,-14.753906 L 17.601749,-17.179688 L 19.711124,-17.179688 L 19.711124,-14.753906 L 17.601749,-14.753906 z M 17.601749,0 L 17.601749,-12.445312 L 19.711124,-12.445312 L 19.711124,0 L 17.601749,0 z"
       transform="matrix(1,0,0,-1,213.12,68.64)"
       id="text3018" /><path
       d="M 1.1601562,-8.3671875 C 1.1601551,-11.218739 1.9257793,-13.451158 3.4570312,-15.064453 C 4.9882763,-16.677718 6.9648368,-17.484358 9.3867188,-17.484375 C 10.972645,-17.484358 12.402331,-17.105452 13.675781,-16.347656 C 14.949204,-15.589828 15.919906,-14.533189 16.587891,-13.177734 C 17.255842,-11.822254 17.589826,-10.285146 17.589844,-8.5664062 C 17.589826,-6.8242119 17.238264,-5.2656197 16.535156,-3.890625 C 15.832015,-2.5156225 14.835923,-1.4746079 13.546875,-0.76757812 C 12.2578,-0.060546814 10.867177,0.29296846 9.375,0.29296875 C 7.7578047,0.29296846 6.3124937,-0.097656152 5.0390625,-0.87890625 C 3.7656212,-1.6601546 2.8007784,-2.7265598 2.1445312,-4.078125 C 1.4882798,-5.4296821 1.1601551,-6.8593681 1.1601562,-8.3671875 L 1.1601562,-8.3671875 z M 3.5039062,-8.3320312 C 3.5039027,-6.2617125 4.0605428,-4.6308547 5.1738281,-3.4394531 C 6.2871031,-2.2480446 7.6835861,-1.6523421 9.3632812,-1.6523438 C 11.074208,-1.6523421 12.482409,-2.253904 13.587891,-3.4570312 C 14.693345,-4.6601516 15.246079,-6.3671811 15.246094,-8.578125 C 15.246079,-9.9765525 15.009751,-11.197254 14.537109,-12.240234 C 14.064439,-13.28319 13.373034,-14.091783 12.462891,-14.666016 C 11.552723,-15.240219 10.531239,-15.527328 9.3984375,-15.527344 C 7.7890547,-15.527328 6.4042905,-14.974594 5.2441406,-13.869141 C 4.0839803,-12.763659 3.5039027,-10.917958 3.5039062,-8.3320312 L 3.5039062,-8.3320312 z"
       transform="matrix(1,0,0,-1,178.32,151.92)"
       id="text3022" /><path
       d="M 1.1601562,-8.3671875 C 1.1601551,-11.218739 1.9257793,-13.451158 3.4570312,-15.064453 C 4.9882763,-16.677718 6.9648368,-17.484358 9.3867188,-17.484375 C 10.972645,-17.484358 12.402331,-17.105452 13.675781,-16.347656 C 14.949204,-15.589828 15.919906,-14.533189 16.587891,-13.177734 C 17.255842,-11.822254 17.589826,-10.285146 17.589844,-8.5664062 C 17.589826,-6.8242119 17.238264,-5.2656197 16.535156,-3.890625 C 15.832015,-2.5156225 14.835923,-1.4746079 13.546875,-0.76757812 C 12.2578,-0.060546814 10.867177,0.29296846 9.375,0.29296875 C 7.7578047,0.29296846 6.3124937,-0.097656152 5.0390625,-0.87890625 C 3.7656212,-1.6601546 2.8007784,-2.7265598 2.1445312,-4.078125 C 1.4882798,-5.4296821 1.1601551,-6.8593681 1.1601562,-8.3671875 L 1.1601562,-8.3671875 z M 3.5039062,-8.3320312 C 3.5039027,-6.2617125 4.0605428,-4.6308547 5.1738281,-3.4394531 C 6.2871031,-2.2480446 7.6835861,-1.6523421 9.3632812,-1.6523438 C 11.074208,-1.6523421 12.482409,-2.253904 13.587891,-3.4570312 C 14.693345,-4.6601516 15.246079,-6.3671811 15.246094,-8.578125 C 15.246079,-9.9765525 15.009751,-11.197254 14.537109,-12.240234 C 14.064439,-13.28319 13.373034,-14.091783 12.462891,-14.666016 C 11.552723,-15.240219 10.531239,-15.527328 9.3984375,-15.527344 C 7.7890547,-15.527328 6.4042905,-14.974594 5.2441406,-13.869141 C 4.0839803,-12.763659 3.5039027,-10.917958 3.5039062,-8.3320312 L 3.5039062,-8.3320312 z"
       transform="matrix(1,0,0,-1,173.52,58.08)"
       id="text3026" /><path
       d="M 1.1601562,-8.3671875 C 1.1601551,-11.218739 1.9257793,-13.451158 3.4570312,-15.064453 C 4.9882763,-16.677718 6.9648368,-17.484358 9.3867188,-17.484375 C 10.972645,-17.484358 12.402331,-17.105452 13.675781,-16.347656 C 14.949204,-15.589828 15.919906,-14.533189 16.587891,-13.177734 C 17.255842,-11.822254 17.589826,-10.285146 17.589844,-8.5664062 C 17.589826,-6.8242119 17.238264,-5.2656197 16.535156,-3.890625 C 15.832015,-2.5156225 14.835923,-1.4746079 13.546875,-0.76757812 C 12.2578,-0.060546814 10.867177,0.29296846 9.375,0.29296875 C 7.7578047,0.29296846 6.3124937,-0.097656152 5.0390625,-0.87890625 C 3.7656212,-1.6601546 2.8007784,-2.7265598 2.1445312,-4.078125 C 1.4882798,-5.4296821 1.1601551,-6.8593681 1.1601562,-8.3671875 L 1.1601562,-8.3671875 z M 3.5039062,-8.3320312 C 3.5039027,-6.2617125 4.0605428,-4.6308547 5.1738281,-3.4394531 C 6.2871031,-2.2480446 7.6835861,-1.6523421 9.3632812,-1.6523438 C 11.074208,-1.6523421 12.482409,-2.253904 13.587891,-3.4570312 C 14.693345,-4.6601516 15.246079,-6.3671811 15.246094,-8.578125 C 15.246079,-9.9765525 15.009751,-11.197254 14.537109,-12.240234 C 14.064439,-13.28319 13.373034,-14.091783 12.462891,-14.666016 C 11.552723,-15.240219 10.531239,-15.527328 9.3984375,-15.527344 C 7.7890547,-15.527328 6.4042905,-14.974594 5.2441406,-13.869141 C 4.0839803,-12.763659 3.5039027,-10.917958 3.5039062,-8.3320312 L 3.5039062,-8.3320312 z"
       transform="matrix(1,0,0,-1,258.72,144.72)"
       id="text3030" /><path
       d="M 1.1601562,-8.3671875 C 1.1601551,-11.218739 1.9257793,-13.451158 3.4570312,-15.064453 C 4.9882763,-16.677718 6.9648368,-17.484358 9.3867188,-17.484375 C 10.972645,-17.484358 12.402331,-17.105452 13.675781,-16.347656 C 14.949204,-15.589828 15.919906,-14.533189 16.587891,-13.177734 C 17.255842,-11.822254 17.589826,-10.285146 17.589844,-8.5664062 C 17.589826,-6.8242119 17.238264,-5.2656197 16.535156,-3.890625 C 15.832015,-2.5156225 14.835923,-1.4746079 13.546875,-0.76757812 C 12.2578,-0.060546814 10.867177,0.29296846 9.375,0.29296875 C 7.7578047,0.29296846 6.3124937,-0.097656152 5.0390625,-0.87890625 C 3.7656212,-1.6601546 2.8007784,-2.7265598 2.1445312,-4.078125 C 1.4882798,-5.4296821 1.1601551,-6.8593681 1.1601562,-8.3671875 L 1.1601562,-8.3671875 z M 3.5039062,-8.3320312 C 3.5039027,-6.2617125 4.0605428,-4.6308547 5.1738281,-3.4394531 C 6.2871031,-2.2480446 7.6835861,-1.6523421 9.3632812,-1.6523438 C 11.074208,-1.6523421 12.482409,-2.253904 13.587891,-3.4570312 C 14.693345,-4.6601516 15.246079,-6.3671811 15.246094,-8.578125 C 15.246079,-9.9765525 15.009751,-11.197254 14.537109,-12.240234 C 14.064439,-13.28319 13.373034,-14.091783 12.462891,-14.666016 C 11.552723,-15.240219 10.531239,-15.527328 9.3984375,-15.527344 C 7.7890547,-15.527328 6.4042905,-14.974594 5.2441406,-13.869141 C 4.0839803,-12.763659 3.5039027,-10.917958 3.5039062,-8.3320312 L 3.5039062,-8.3320312 z"
       transform="matrix(1,0,0,-1,128.64,28.08)"
       id="text3034" /><path
       d="M 1.1601562,-8.3671875 C 1.1601551,-11.218739 1.9257793,-13.451158 3.4570312,-15.064453 C 4.9882763,-16.677718 6.9648368,-17.484358 9.3867188,-17.484375 C 10.972645,-17.484358 12.402331,-17.105452 13.675781,-16.347656 C 14.949204,-15.589828 15.919906,-14.533189 16.587891,-13.177734 C 17.255842,-11.822254 17.589826,-10.285146 17.589844,-8.5664062 C 17.589826,-6.8242119 17.238264,-5.2656197 16.535156,-3.890625 C 15.832015,-2.5156225 14.835923,-1.4746079 13.546875,-0.76757812 C 12.2578,-0.060546814 10.867177,0.29296846 9.375,0.29296875 C 7.7578047,0.29296846 6.3124937,-0.097656152 5.0390625,-0.87890625 C 3.7656212,-1.6601546 2.8007784,-2.7265598 2.1445312,-4.078125 C 1.4882798,-5.4296821 1.1601551,-6.8593681 1.1601562,-8.3671875 L 1.1601562,-8.3671875 z M 3.5039062,-8.3320312 C 3.5039027,-6.2617125 4.0605428,-4.6308547 5.1738281,-3.4394531 C 6.2871031,-2.2480446 7.6835861,-1.6523421 9.3632812,-1.6523438 C 11.074208,-1.6523421 12.482409,-2.253904 13.587891,-3.4570312 C 14.693345,-4.6601516 15.246079,-6.3671811 15.246094,-8.578125 C 15.246079,-9.9765525 15.009751,-11.197254 14.537109,-12.240234 C 14.064439,-13.28319 13.373034,-14.091783 12.462891,-14.666016 C 11.552723,-15.240219 10.531239,-15.527328 9.3984375,-15.527344 C 7.7890547,-15.527328 6.4042905,-14.974594 5.2441406,-13.869141 C 4.0839803,-12.763659 3.5039027,-10.917958 3.5039062,-8.3320312 L 3.5039062,-8.3320312 z"
       transform="matrix(1,0,0,-1,132.24,267.36)"
       id="text3038" /><path
       d="M 65.76,64.08 L 68.64,66.24"
       id="path3042"
       style="fill:none;stroke:#000000;stroke-width:1.44000006;stroke-linecap:round;stroke-linejoin:miter;stroke-miterlimit:10;stroke-dasharray:none;stroke-opacity:1" /><path
       d="M 65.76,64.08 L 72.24,61.44"
       id="path3044"
       style="fill:none;stroke:#000000;stroke-width:1.44000006;stroke-linecap:round;stroke-linejoin:miter;stroke-miterlimit:10;stroke-dasharray:none;stroke-opacity:1" /><path
       d="M 66.48,57.36 L 72.24,61.44"
       id="path3046"
       style="fill:none;stroke:#000000;stroke-width:1.44000006;stroke-linecap:round;stroke-linejoin:miter;stroke-miterlimit:10;stroke-dasharray:none;stroke-opacity:1" /><path
       d="M 66.48,57.36 L 72.96,54.72"
       id="path3048"
       style="fill:none;stroke:#000000;stroke-width:1.44000006;stroke-linecap:round;stroke-linejoin:miter;stroke-miterlimit:10;stroke-dasharray:none;stroke-opacity:1" /><path
       d="M 67.2,50.64 L 72.96,54.72"
       id="path3050"
       style="fill:none;stroke:#000000;stroke-width:1.44000006;stroke-linecap:round;stroke-linejoin:miter;stroke-miterlimit:10;stroke-dasharray:none;stroke-opacity:1" /><path
       d="M 67.2,50.64 L 73.68,48"
       id="path3052"
       style="fill:none;stroke:#000000;stroke-width:1.44000006;stroke-linecap:round;stroke-linejoin:miter;stroke-miterlimit:10;stroke-dasharray:none;stroke-opacity:1" /><path
       d="M 67.92,44.16 L 73.68,48"
       id="path3054"
       style="fill:none;stroke:#000000;stroke-width:1.44000006;stroke-linecap:round;stroke-linejoin:miter;stroke-miterlimit:10;stroke-dasharray:none;stroke-opacity:1" /><path
       d="M 67.92,44.16 L 74.16,41.52"
       id="path3056"
       style="fill:none;stroke:#000000;stroke-width:1.44000006;stroke-linecap:round;stroke-linejoin:miter;stroke-miterlimit:10;stroke-dasharray:none;stroke-opacity:1" /><path
       d="M 68.64,37.44 L 74.16,41.52"
       id="path3058"
       style="fill:none;stroke:#000000;stroke-width:1.44000006;stroke-linecap:round;stroke-linejoin:miter;stroke-miterlimit:10;stroke-dasharray:none;stroke-opacity:1" /><path
       d="M 68.64,37.44 L 71.76,36.72"
       id="path3060"
       style="fill:none;stroke:#000000;stroke-width:1.44000006;stroke-linecap:round;stroke-linejoin:miter;stroke-miterlimit:10;stroke-dasharray:none;stroke-opacity:1" /><path
       d="M 83.52,82.08 L 93.6,84.24"
       id="path3062"
       style="fill:none;stroke:#000000;stroke-width:1.67999995;stroke-linecap:round;stroke-linejoin:miter;stroke-miterlimit:10;stroke-dasharray:none;stroke-opacity:1" /><path
       d="M 117.6,84.72 L 133.92,81.6"
       id="path3064"
       style="fill:none;stroke:#000000;stroke-width:1.67999995;stroke-linecap:round;stroke-linejoin:miter;stroke-miterlimit:10;stroke-dasharray:none;stroke-opacity:1" /><path
       d="M 147.6,91.68 L 150.72,105.12"
       id="path3066"
       style="fill:none;stroke:#000000;stroke-width:1.67999995;stroke-linecap:round;stroke-linejoin:miter;stroke-miterlimit:10;stroke-dasharray:none;stroke-opacity:1" /><path
       d="M 151.68,129.6 L 149.52,144.48"
       id="path3068"
       style="fill:none;stroke:#000000;stroke-width:1.67999995;stroke-linecap:round;stroke-linejoin:miter;stroke-miterlimit:10;stroke-dasharray:none;stroke-opacity:1" /><path
       d="M 146.88,168.96 L 145.68,184.08"
       id="path3070"
       style="fill:none;stroke:#000000;stroke-width:1.67999995;stroke-linecap:round;stroke-linejoin:miter;stroke-miterlimit:10;stroke-dasharray:none;stroke-opacity:1" /><path
       d="M 145.2,208.56 L 145.92,222.48"
       id="path3072"
       style="fill:none;stroke:#000000;stroke-width:1.67999995;stroke-linecap:round;stroke-linejoin:miter;stroke-miterlimit:10;stroke-dasharray:none;stroke-opacity:1" /><path
       d="M 135.6,234 L 119.04,233.28"
       id="path3074"
       style="fill:none;stroke:#000000;stroke-width:1.67999995;stroke-linecap:round;stroke-linejoin:miter;stroke-miterlimit:10;stroke-dasharray:none;stroke-opacity:1" /><path
       d="M 95.04,232.32 L 84.72,232.08"
       id="path3076"
       style="fill:none;stroke:#000000;stroke-width:1.67999995;stroke-linecap:round;stroke-linejoin:miter;stroke-miterlimit:10;stroke-dasharray:none;stroke-opacity:1" /><path
       d="M 56.4,236.16 L 57.84,232.8"
       id="path3078"
       style="fill:none;stroke:#000000;stroke-width:1.44000006;stroke-linecap:round;stroke-linejoin:miter;stroke-miterlimit:10;stroke-dasharray:none;stroke-opacity:1" /><path
       d="M 56.4,236.16 L 52.32,230.16"
       id="path3080"
       style="fill:none;stroke:#000000;stroke-width:1.44000006;stroke-linecap:round;stroke-linejoin:miter;stroke-miterlimit:10;stroke-dasharray:none;stroke-opacity:1" /><path
       d="M 49.68,236.64 L 52.32,230.16"
       id="path3082"
       style="fill:none;stroke:#000000;stroke-width:1.44000006;stroke-linecap:round;stroke-linejoin:miter;stroke-miterlimit:10;stroke-dasharray:none;stroke-opacity:1" /><path
       d="M 49.68,236.64 L 45.6,230.88"
       id="path3084"
       style="fill:none;stroke:#000000;stroke-width:1.44000006;stroke-linecap:round;stroke-linejoin:miter;stroke-miterlimit:10;stroke-dasharray:none;stroke-opacity:1" /><path
       d="M 42.96,237.36 L 45.6,230.88"
       id="path3086"
       style="fill:none;stroke:#000000;stroke-width:1.44000006;stroke-linecap:round;stroke-linejoin:miter;stroke-miterlimit:10;stroke-dasharray:none;stroke-opacity:1" /><path
       d="M 42.96,237.36 L 38.88,231.6"
       id="path3088"
       style="fill:none;stroke:#000000;stroke-width:1.44000006;stroke-linecap:round;stroke-linejoin:miter;stroke-miterlimit:10;stroke-dasharray:none;stroke-opacity:1" /><path
       d="M 36.24,238.08 L 38.88,231.6"
       id="path3090"
       style="fill:none;stroke:#000000;stroke-width:1.44000006;stroke-linecap:round;stroke-linejoin:miter;stroke-miterlimit:10;stroke-dasharray:none;stroke-opacity:1" /><path
       d="M 36.24,238.08 L 32.4,232.32"
       id="path3092"
       style="fill:none;stroke:#000000;stroke-width:1.44000006;stroke-linecap:round;stroke-linejoin:miter;stroke-miterlimit:10;stroke-dasharray:none;stroke-opacity:1" /><path
       d="M 29.76,238.8 L 32.4,232.32"
       id="path3094"
       style="fill:none;stroke:#000000;stroke-width:1.44000006;stroke-linecap:round;stroke-linejoin:miter;stroke-miterlimit:10;stroke-dasharray:none;stroke-opacity:1" /><path
       d="M 29.76,238.8 L 26.64,235.92"
       id="path3096"
       style="fill:none;stroke:#000000;stroke-width:1.44000006;stroke-linecap:round;stroke-linejoin:miter;stroke-miterlimit:10;stroke-dasharray:none;stroke-opacity:1" /><path
       d="M 71.52,245.76 L 68.4,243.84"
       id="path3098"
       style="fill:none;stroke:#000000;stroke-width:1.44000006;stroke-linecap:round;stroke-linejoin:miter;stroke-miterlimit:10;stroke-dasharray:none;stroke-opacity:1" /><path
       d="M 71.52,245.76 L 65.04,248.88"
       id="path3100"
       style="fill:none;stroke:#000000;stroke-width:1.44000006;stroke-linecap:round;stroke-linejoin:miter;stroke-miterlimit:10;stroke-dasharray:none;stroke-opacity:1" /><path
       d="M 71.28,252.48 L 65.04,248.88"
       id="path3102"
       style="fill:none;stroke:#000000;stroke-width:1.44000006;stroke-linecap:round;stroke-linejoin:miter;stroke-miterlimit:10;stroke-dasharray:none;stroke-opacity:1" /><path
       d="M 71.28,252.48 L 65.04,255.6"
       id="path3104"
       style="fill:none;stroke:#000000;stroke-width:1.44000006;stroke-linecap:round;stroke-linejoin:miter;stroke-miterlimit:10;stroke-dasharray:none;stroke-opacity:1" /><path
       d="M 71.04,259.2 L 65.04,255.6"
       id="path3106"
       style="fill:none;stroke:#000000;stroke-width:1.44000006;stroke-linecap:round;stroke-linejoin:miter;stroke-miterlimit:10;stroke-dasharray:none;stroke-opacity:1" /><path
       d="M 71.04,259.2 L 64.8,262.32"
       id="path3108"
       style="fill:none;stroke:#000000;stroke-width:1.44000006;stroke-linecap:round;stroke-linejoin:miter;stroke-miterlimit:10;stroke-dasharray:none;stroke-opacity:1" /><path
       d="M 71.04,265.92 L 64.8,262.32"
       id="path3110"
       style="fill:none;stroke:#000000;stroke-width:1.44000006;stroke-linecap:round;stroke-linejoin:miter;stroke-miterlimit:10;stroke-dasharray:none;stroke-opacity:1" /><path
       d="M 71.04,265.92 L 64.56,269.04"
       id="path3112"
       style="fill:none;stroke:#000000;stroke-width:1.44000006;stroke-linecap:round;stroke-linejoin:miter;stroke-miterlimit:10;stroke-dasharray:none;stroke-opacity:1" /><path
       d="M 70.8,272.64 L 64.56,269.04"
       id="path3114"
       style="fill:none;stroke:#000000;stroke-width:1.44000006;stroke-linecap:round;stroke-linejoin:miter;stroke-miterlimit:10;stroke-dasharray:none;stroke-opacity:1" /><path
       d="M 70.8,272.64 L 67.68,273.84"
       id="path3116"
       style="fill:none;stroke:#000000;stroke-width:1.44000006;stroke-linecap:round;stroke-linejoin:miter;stroke-miterlimit:10;stroke-dasharray:none;stroke-opacity:1" /><path
       d="M 66.96,219.36 L 65.04,205.44"
       id="path3118"
       style="fill:none;stroke:#000000;stroke-width:1.67999995;stroke-linecap:round;stroke-linejoin:miter;stroke-miterlimit:10;stroke-dasharray:none;stroke-opacity:1" /><path
       d="M 65.28,180.96 L 67.68,166.32"
       id="path3120"
       style="fill:none;stroke:#000000;stroke-width:1.67999995;stroke-linecap:round;stroke-linejoin:miter;stroke-miterlimit:10;stroke-dasharray:none;stroke-opacity:1" /><path
       d="M 64.08,141.84 L 58.32,128.64"
       id="path3122"
       style="fill:none;stroke:#000000;stroke-width:1.67999995;stroke-linecap:round;stroke-linejoin:miter;stroke-miterlimit:10;stroke-dasharray:none;stroke-opacity:1" /><path
       d="M 57.36,104.16 L 62.64,90.96"
       id="path3124"
       style="fill:none;stroke:#000000;stroke-width:1.67999995;stroke-linecap:round;stroke-linejoin:miter;stroke-miterlimit:10;stroke-dasharray:none;stroke-opacity:1" /><path
       d="M 85.68,153.12 L 96.24,152.64"
       id="path3126"
       style="fill:none;stroke:#000000;stroke-width:1.67999995;stroke-linecap:round;stroke-linejoin:miter;stroke-miterlimit:10;stroke-dasharray:none;stroke-opacity:1" /><path
       d="M 120.24,153.36 L 137.28,155.52"
       id="path3128"
       style="fill:none;stroke:#000000;stroke-width:1.67999995;stroke-linecap:round;stroke-linejoin:miter;stroke-miterlimit:10;stroke-dasharray:none;stroke-opacity:1" /><path
       d="M 59.04,155.28 L 38.88,157.44"
       id="path3130"
       style="fill:none;stroke:#000000;stroke-width:1.67999995;stroke-linecap:round;stroke-linejoin:miter;stroke-miterlimit:10;stroke-dasharray:none;stroke-opacity:1" /><path
       d="M 53.76,78.24 L 56.16,75.84"
       id="path3132"
       style="fill:none;stroke:#000000;stroke-width:1.44000006;stroke-linecap:round;stroke-linejoin:miter;stroke-miterlimit:10;stroke-dasharray:none;stroke-opacity:1" /><path
       d="M 53.76,78.24 L 52.08,71.52"
       id="path3134"
       style="fill:none;stroke:#000000;stroke-width:1.44000006;stroke-linecap:round;stroke-linejoin:miter;stroke-miterlimit:10;stroke-dasharray:none;stroke-opacity:1" /><path
       d="M 47.28,76.56 L 52.08,71.52"
       id="path3136"
       style="fill:none;stroke:#000000;stroke-width:1.44000006;stroke-linecap:round;stroke-linejoin:miter;stroke-miterlimit:10;stroke-dasharray:none;stroke-opacity:1" /><path
       d="M 47.28,76.56 L 45.6,69.84"
       id="path3138"
       style="fill:none;stroke:#000000;stroke-width:1.44000006;stroke-linecap:round;stroke-linejoin:miter;stroke-miterlimit:10;stroke-dasharray:none;stroke-opacity:1" /><path
       d="M 40.8,74.88 L 45.6,69.84"
       id="path3140"
       style="fill:none;stroke:#000000;stroke-width:1.44000006;stroke-linecap:round;stroke-linejoin:miter;stroke-miterlimit:10;stroke-dasharray:none;stroke-opacity:1" /><path
       d="M 40.8,74.88 L 38.88,68.16"
       id="path3142"
       style="fill:none;stroke:#000000;stroke-width:1.44000006;stroke-linecap:round;stroke-linejoin:miter;stroke-miterlimit:10;stroke-dasharray:none;stroke-opacity:1" /><path
       d="M 34.32,73.2 L 38.88,68.16"
       id="path3144"
       style="fill:none;stroke:#000000;stroke-width:1.44000006;stroke-linecap:round;stroke-linejoin:miter;stroke-miterlimit:10;stroke-dasharray:none;stroke-opacity:1" /><path
       d="M 34.32,73.2 L 32.4,66.48"
       id="path3146"
       style="fill:none;stroke:#000000;stroke-width:1.44000006;stroke-linecap:round;stroke-linejoin:miter;stroke-miterlimit:10;stroke-dasharray:none;stroke-opacity:1" /><path
       d="M 27.84,71.52 L 32.4,66.48"
       id="path3148"
       style="fill:none;stroke:#000000;stroke-width:1.44000006;stroke-linecap:round;stroke-linejoin:miter;stroke-miterlimit:10;stroke-dasharray:none;stroke-opacity:1" /><path
       d="M 27.84,71.52 L 26.4,68.16"
       id="path3150"
       style="fill:none;stroke:#000000;stroke-width:1.44000006;stroke-linecap:round;stroke-linejoin:miter;stroke-miterlimit:10;stroke-dasharray:none;stroke-opacity:1" /><path
       d="M 162.24,237.36 L 173.04,239.28"
       id="path3152"
       style="fill:none;stroke:#000000;stroke-width:1.67999995;stroke-linecap:round;stroke-linejoin:miter;stroke-miterlimit:10;stroke-dasharray:none;stroke-opacity:1" /><path
       d="M 197.04,238.8 L 212.64,235.2"
       id="path3154"
       style="fill:none;stroke:#000000;stroke-width:1.67999995;stroke-linecap:round;stroke-linejoin:miter;stroke-miterlimit:10;stroke-dasharray:none;stroke-opacity:1" /><path
       d="M 225.84,220.8 L 228.72,207.12"
       id="path3156"
       style="fill:none;stroke:#000000;stroke-width:1.67999995;stroke-linecap:round;stroke-linejoin:miter;stroke-miterlimit:10;stroke-dasharray:none;stroke-opacity:1" /><path
       d="M 229.44,182.64 L 227.52,168"
       id="path3158"
       style="fill:none;stroke:#000000;stroke-width:1.67999995;stroke-linecap:round;stroke-linejoin:miter;stroke-miterlimit:10;stroke-dasharray:none;stroke-opacity:1" /><path
       d="M 225.84,143.52 L 226.08,128.64"
       id="path3160"
       style="fill:none;stroke:#000000;stroke-width:1.67999995;stroke-linecap:round;stroke-linejoin:miter;stroke-miterlimit:10;stroke-dasharray:none;stroke-opacity:1" /><path
       d="M 224.64,104.16 L 222.72,90.48"
       id="path3162"
       style="fill:none;stroke:#000000;stroke-width:1.67999995;stroke-linecap:round;stroke-linejoin:miter;stroke-miterlimit:10;stroke-dasharray:none;stroke-opacity:1" /><path
       d="M 163.92,158.64 L 175.68,159.84"
       id="path3164"
       style="fill:none;stroke:#000000;stroke-width:1.67999995;stroke-linecap:round;stroke-linejoin:miter;stroke-miterlimit:10;stroke-dasharray:none;stroke-opacity:1" /><path
       d="M 199.68,159.6 L 215.04,157.2"
       id="path3166"
       style="fill:none;stroke:#000000;stroke-width:1.67999995;stroke-linecap:round;stroke-linejoin:miter;stroke-miterlimit:10;stroke-dasharray:none;stroke-opacity:1" /><path
       d="M 160.56,74.4 L 170.88,71.28"
       id="path3168"
       style="fill:none;stroke:#000000;stroke-width:1.67999995;stroke-linecap:round;stroke-linejoin:miter;stroke-miterlimit:10;stroke-dasharray:none;stroke-opacity:1" /><path
       d="M 194.88,70.8 L 210.48,75.12"
       id="path3170"
       style="fill:none;stroke:#000000;stroke-width:1.67999995;stroke-linecap:round;stroke-linejoin:miter;stroke-miterlimit:10;stroke-dasharray:none;stroke-opacity:1" /><path
       d="M 241.68,231.6 L 239.52,234.48"
       id="path3172"
       style="fill:none;stroke:#000000;stroke-width:1.44000006;stroke-linecap:round;stroke-linejoin:miter;stroke-miterlimit:10;stroke-dasharray:none;stroke-opacity:1" /><path
       d="M 241.68,231.6 L 244.32,238.08"
       id="path3174"
       style="fill:none;stroke:#000000;stroke-width:1.44000006;stroke-linecap:round;stroke-linejoin:miter;stroke-miterlimit:10;stroke-dasharray:none;stroke-opacity:1" /><path
       d="M 248.4,232.32 L 244.32,238.08"
       id="path3176"
       style="fill:none;stroke:#000000;stroke-width:1.44000006;stroke-linecap:round;stroke-linejoin:miter;stroke-miterlimit:10;stroke-dasharray:none;stroke-opacity:1" /><path
       d="M 248.4,232.32 L 251.04,238.8"
       id="path3178"
       style="fill:none;stroke:#000000;stroke-width:1.44000006;stroke-linecap:round;stroke-linejoin:miter;stroke-miterlimit:10;stroke-dasharray:none;stroke-opacity:1" /><path
       d="M 255.12,232.8 L 251.04,238.8"
       id="path3180"
       style="fill:none;stroke:#000000;stroke-width:1.44000006;stroke-linecap:round;stroke-linejoin:miter;stroke-miterlimit:10;stroke-dasharray:none;stroke-opacity:1" /><path
       d="M 255.12,232.8 L 257.76,239.52"
       id="path3182"
       style="fill:none;stroke:#000000;stroke-width:1.44000006;stroke-linecap:round;stroke-linejoin:miter;stroke-miterlimit:10;stroke-dasharray:none;stroke-opacity:1" /><path
       d="M 261.84,233.52 L 257.76,239.52"
       id="path3184"
       style="fill:none;stroke:#000000;stroke-width:1.44000006;stroke-linecap:round;stroke-linejoin:miter;stroke-miterlimit:10;stroke-dasharray:none;stroke-opacity:1" /><path
       d="M 261.84,233.52 L 264.24,240.24"
       id="path3186"
       style="fill:none;stroke:#000000;stroke-width:1.44000006;stroke-linecap:round;stroke-linejoin:miter;stroke-miterlimit:10;stroke-dasharray:none;stroke-opacity:1" /><path
       d="M 265.68,237.12 L 264.24,240.24"
       id="path3188"
       style="fill:none;stroke:#000000;stroke-width:1.44000006;stroke-linecap:round;stroke-linejoin:miter;stroke-miterlimit:10;stroke-dasharray:none;stroke-opacity:1" /><path
       d="M 228,246.96 L 224.64,245.52"
       id="path3190"
       style="fill:none;stroke:#000000;stroke-width:1.44000006;stroke-linecap:round;stroke-linejoin:miter;stroke-miterlimit:10;stroke-dasharray:none;stroke-opacity:1" /><path
       d="M 228,246.96 L 222.24,251.04"
       id="path3192"
       style="fill:none;stroke:#000000;stroke-width:1.44000006;stroke-linecap:round;stroke-linejoin:miter;stroke-miterlimit:10;stroke-dasharray:none;stroke-opacity:1" /><path
       d="M 228.72,253.68 L 222.24,251.04"
       id="path3194"
       style="fill:none;stroke:#000000;stroke-width:1.44000006;stroke-linecap:round;stroke-linejoin:miter;stroke-miterlimit:10;stroke-dasharray:none;stroke-opacity:1" /><path
       d="M 228.72,253.68 L 222.96,257.76"
       id="path3196"
       style="fill:none;stroke:#000000;stroke-width:1.44000006;stroke-linecap:round;stroke-linejoin:miter;stroke-miterlimit:10;stroke-dasharray:none;stroke-opacity:1" /><path
       d="M 229.44,260.4 L 222.96,257.76"
       id="path3198"
       style="fill:none;stroke:#000000;stroke-width:1.44000006;stroke-linecap:round;stroke-linejoin:miter;stroke-miterlimit:10;stroke-dasharray:none;stroke-opacity:1" /><path
       d="M 229.44,260.4 L 223.68,264.48"
       id="path3200"
       style="fill:none;stroke:#000000;stroke-width:1.44000006;stroke-linecap:round;stroke-linejoin:miter;stroke-miterlimit:10;stroke-dasharray:none;stroke-opacity:1" /><path
       d="M 230.16,266.88 L 223.68,264.48"
       id="path3202"
       style="fill:none;stroke:#000000;stroke-width:1.44000006;stroke-linecap:round;stroke-linejoin:miter;stroke-miterlimit:10;stroke-dasharray:none;stroke-opacity:1" /><path
       d="M 230.16,266.88 L 224.4,270.96"
       id="path3204"
       style="fill:none;stroke:#000000;stroke-width:1.44000006;stroke-linecap:round;stroke-linejoin:miter;stroke-miterlimit:10;stroke-dasharray:none;stroke-opacity:1" /><path
       d="M 230.88,273.6 L 224.4,270.96"
       id="path3206"
       style="fill:none;stroke:#000000;stroke-width:1.44000006;stroke-linecap:round;stroke-linejoin:miter;stroke-miterlimit:10;stroke-dasharray:none;stroke-opacity:1" /><path
       d="M 230.88,273.6 L 228,275.28"
       id="path3208"
       style="fill:none;stroke:#000000;stroke-width:1.44000006;stroke-linecap:round;stroke-linejoin:miter;stroke-miterlimit:10;stroke-dasharray:none;stroke-opacity:1" /><path
       d="M 241.68,155.04 L 256.08,154.56"
       id="path3210"
       style="fill:none;stroke:#000000;stroke-width:1.67999995;stroke-linecap:round;stroke-linejoin:miter;stroke-miterlimit:10;stroke-dasharray:none;stroke-opacity:1" /><path
       d="M 238.8,73.92 L 237.36,77.04"
       id="path3212"
       style="fill:none;stroke:#000000;stroke-width:1.44000006;stroke-linecap:round;stroke-linejoin:miter;stroke-miterlimit:10;stroke-dasharray:none;stroke-opacity:1" /><path
       d="M 238.8,73.92 L 242.64,79.92"
       id="path3214"
       style="fill:none;stroke:#000000;stroke-width:1.44000006;stroke-linecap:round;stroke-linejoin:miter;stroke-miterlimit:10;stroke-dasharray:none;stroke-opacity:1" /><path
       d="M 245.52,73.44 L 242.64,79.92"
       id="path3216"
       style="fill:none;stroke:#000000;stroke-width:1.44000006;stroke-linecap:round;stroke-linejoin:miter;stroke-miterlimit:10;stroke-dasharray:none;stroke-opacity:1" /><path
       d="M 245.52,73.44 L 249.36,79.44"
       id="path3218"
       style="fill:none;stroke:#000000;stroke-width:1.44000006;stroke-linecap:round;stroke-linejoin:miter;stroke-miterlimit:10;stroke-dasharray:none;stroke-opacity:1" /><path
       d="M 252.24,72.96 L 249.36,79.44"
       id="path3220"
       style="fill:none;stroke:#000000;stroke-width:1.44000006;stroke-linecap:round;stroke-linejoin:miter;stroke-miterlimit:10;stroke-dasharray:none;stroke-opacity:1" /><path
       d="M 252.24,72.96 L 256.08,78.96"
       id="path3222"
       style="fill:none;stroke:#000000;stroke-width:1.44000006;stroke-linecap:round;stroke-linejoin:miter;stroke-miterlimit:10;stroke-dasharray:none;stroke-opacity:1" /><path
       d="M 258.96,72.48 L 256.08,78.96"
       id="path3224"
       style="fill:none;stroke:#000000;stroke-width:1.44000006;stroke-linecap:round;stroke-linejoin:miter;stroke-miterlimit:10;stroke-dasharray:none;stroke-opacity:1" /><path
       d="M 258.96,72.48 L 262.8,78.48"
       id="path3226"
       style="fill:none;stroke:#000000;stroke-width:1.44000006;stroke-linecap:round;stroke-linejoin:miter;stroke-miterlimit:10;stroke-dasharray:none;stroke-opacity:1" /><path
       d="M 263.52,75.36 L 262.8,78.48"
       id="path3228"
       style="fill:none;stroke:#000000;stroke-width:1.44000006;stroke-linecap:round;stroke-linejoin:miter;stroke-miterlimit:10;stroke-dasharray:none;stroke-opacity:1" /><path
       d="M 220.08,63.36 L 222.96,65.52"
       id="path3230"
       style="fill:none;stroke:#000000;stroke-width:1.44000006;stroke-linecap:round;stroke-linejoin:miter;stroke-miterlimit:10;stroke-dasharray:none;stroke-opacity:1" /><path
       d="M 220.08,63.36 L 226.8,60.96"
       id="path3232"
       style="fill:none;stroke:#000000;stroke-width:1.44000006;stroke-linecap:round;stroke-linejoin:miter;stroke-miterlimit:10;stroke-dasharray:none;stroke-opacity:1" /><path
       d="M 221.04,56.64 L 226.8,60.96"
       id="path3234"
       style="fill:none;stroke:#000000;stroke-width:1.44000006;stroke-linecap:round;stroke-linejoin:miter;stroke-miterlimit:10;stroke-dasharray:none;stroke-opacity:1" /><path
       d="M 221.04,56.64 L 227.76,54.24"
       id="path3236"
       style="fill:none;stroke:#000000;stroke-width:1.44000006;stroke-linecap:round;stroke-linejoin:miter;stroke-miterlimit:10;stroke-dasharray:none;stroke-opacity:1" /><path
       d="M 222,50.16 L 227.76,54.24"
       id="path3238"
       style="fill:none;stroke:#000000;stroke-width:1.44000006;stroke-linecap:round;stroke-linejoin:miter;stroke-miterlimit:10;stroke-dasharray:none;stroke-opacity:1" /><path
       d="M 222,50.16 L 228.72,47.76"
       id="path3240"
       style="fill:none;stroke:#000000;stroke-width:1.44000006;stroke-linecap:round;stroke-linejoin:miter;stroke-miterlimit:10;stroke-dasharray:none;stroke-opacity:1" /><path
       d="M 222.96,43.44 L 228.72,47.76"
       id="path3242"
       style="fill:none;stroke:#000000;stroke-width:1.44000006;stroke-linecap:round;stroke-linejoin:miter;stroke-miterlimit:10;stroke-dasharray:none;stroke-opacity:1" /><path
       d="M 222.96,43.44 L 229.44,41.04"
       id="path3244"
       style="fill:none;stroke:#000000;stroke-width:1.44000006;stroke-linecap:round;stroke-linejoin:miter;stroke-miterlimit:10;stroke-dasharray:none;stroke-opacity:1" /><path
       d="M 223.92,36.72 L 229.44,41.04"
       id="path3246"
       style="fill:none;stroke:#000000;stroke-width:1.44000006;stroke-linecap:round;stroke-linejoin:miter;stroke-miterlimit:10;stroke-dasharray:none;stroke-opacity:1" /><path
       d="M 223.92,36.72 L 227.04,36"
       id="path3248"
       style="fill:none;stroke:#000000;stroke-width:1.44000006;stroke-linecap:round;stroke-linejoin:miter;stroke-miterlimit:10;stroke-dasharray:none;stroke-opacity:1" /><path
       d="M 142.8,67.2 L 140.16,49.92"
       id="path3250"
       style="fill:none;stroke:#000000;stroke-width:1.67999995;stroke-linecap:round;stroke-linejoin:miter;stroke-miterlimit:10;stroke-dasharray:none;stroke-opacity:1" /><path
       d="M 144.96,246.96 L 143.04,264.72"
       id="path3252"
       style="fill:none;stroke:#000000;stroke-width:1.67999995;stroke-linecap:round;stroke-linejoin:miter;stroke-miterlimit:10;stroke-dasharray:none;stroke-opacity:1" /><path
       d="M 158.4,285.12 L 155.28,286.56"
       id="path3254"
       style="fill:none;stroke:#000000;stroke-width:1.44000006;stroke-linecap:round;stroke-linejoin:miter;stroke-miterlimit:10;stroke-dasharray:none;stroke-opacity:1" /><path
       d="M 158.4,285.12 L 157.44,292.08"
       id="path3256"
       style="fill:none;stroke:#000000;stroke-width:1.44000006;stroke-linecap:round;stroke-linejoin:miter;stroke-miterlimit:10;stroke-dasharray:none;stroke-opacity:1" /><path
       d="M 163.68,288.96 L 157.44,292.08"
       id="path3258"
       style="fill:none;stroke:#000000;stroke-width:1.44000006;stroke-linecap:round;stroke-linejoin:miter;stroke-miterlimit:10;stroke-dasharray:none;stroke-opacity:1" /><path
       d="M 163.68,288.96 L 162.96,296.16"
       id="path3260"
       style="fill:none;stroke:#000000;stroke-width:1.44000006;stroke-linecap:round;stroke-linejoin:miter;stroke-miterlimit:10;stroke-dasharray:none;stroke-opacity:1" /><path
       d="M 169.2,293.04 L 162.96,296.16"
       id="path3262"
       style="fill:none;stroke:#000000;stroke-width:1.44000006;stroke-linecap:round;stroke-linejoin:miter;stroke-miterlimit:10;stroke-dasharray:none;stroke-opacity:1" /><path
       d="M 169.2,293.04 L 168.48,300"
       id="path3264"
       style="fill:none;stroke:#000000;stroke-width:1.44000006;stroke-linecap:round;stroke-linejoin:miter;stroke-miterlimit:10;stroke-dasharray:none;stroke-opacity:1" /><path
       d="M 174.72,296.88 L 168.48,300"
       id="path3266"
       style="fill:none;stroke:#000000;stroke-width:1.44000006;stroke-linecap:round;stroke-linejoin:miter;stroke-miterlimit:10;stroke-dasharray:none;stroke-opacity:1" /><path
       d="M 174.72,296.88 L 173.76,300.24"
       id="path3268"
       style="fill:none;stroke:#000000;stroke-width:1.44000006;stroke-linecap:round;stroke-linejoin:miter;stroke-miterlimit:10;stroke-dasharray:none;stroke-opacity:1" /><path
       d="M 273.6,137.76 L 275.52,140.64"
       id="path3270"
       style="fill:none;stroke:#000000;stroke-width:1.44000006;stroke-linecap:round;stroke-linejoin:miter;stroke-miterlimit:10;stroke-dasharray:none;stroke-opacity:1" /><path
       d="M 273.6,137.76 L 280.8,137.52"
       id="path3272"
       style="fill:none;stroke:#000000;stroke-width:1.44000006;stroke-linecap:round;stroke-linejoin:miter;stroke-miterlimit:10;stroke-dasharray:none;stroke-opacity:1" /><path
       d="M 276.72,131.76 L 280.8,137.52"
       id="path3274"
       style="fill:none;stroke:#000000;stroke-width:1.44000006;stroke-linecap:round;stroke-linejoin:miter;stroke-miterlimit:10;stroke-dasharray:none;stroke-opacity:1" /><path
       d="M 276.72,131.76 L 283.92,131.76"
       id="path3276"
       style="fill:none;stroke:#000000;stroke-width:1.44000006;stroke-linecap:round;stroke-linejoin:miter;stroke-miterlimit:10;stroke-dasharray:none;stroke-opacity:1" /><path
       d="M 280.08,125.76 L 283.92,131.76"
       id="path3278"
       style="fill:none;stroke:#000000;stroke-width:1.44000006;stroke-linecap:round;stroke-linejoin:miter;stroke-miterlimit:10;stroke-dasharray:none;stroke-opacity:1" /><path
       d="M 280.08,125.76 L 287.04,125.76"
       id="path3280"
       style="fill:none;stroke:#000000;stroke-width:1.44000006;stroke-linecap:round;stroke-linejoin:miter;stroke-miterlimit:10;stroke-dasharray:none;stroke-opacity:1" /><path
       d="M 283.2,120 L 287.04,125.76"
       id="path3282"
       style="fill:none;stroke:#000000;stroke-width:1.44000006;stroke-linecap:round;stroke-linejoin:miter;stroke-miterlimit:10;stroke-dasharray:none;stroke-opacity:1" /><path
       d="M 283.2,120 L 286.8,119.52"
       id="path3284"
       style="fill:none;stroke:#000000;stroke-width:1.44000006;stroke-linecap:round;stroke-linejoin:miter;stroke-miterlimit:10;stroke-dasharray:none;stroke-opacity:1" /><path
       d="M 149.28,23.76 L 150,27.36"
       id="path3286"
       style="fill:none;stroke:#000000;stroke-width:1.44000006;stroke-linecap:round;stroke-linejoin:miter;stroke-miterlimit:10;stroke-dasharray:none;stroke-opacity:1" /><path
       d="M 149.28,23.76 L 156,26.4"
       id="path3288"
       style="fill:none;stroke:#000000;stroke-width:1.44000006;stroke-linecap:round;stroke-linejoin:miter;stroke-miterlimit:10;stroke-dasharray:none;stroke-opacity:1" /><path
       d="M 154.56,19.44 L 156,26.4"
       id="path3290"
       style="fill:none;stroke:#000000;stroke-width:1.44000006;stroke-linecap:round;stroke-linejoin:miter;stroke-miterlimit:10;stroke-dasharray:none;stroke-opacity:1" /><path
       d="M 154.56,19.44 L 161.04,22.08"
       id="path3292"
       style="fill:none;stroke:#000000;stroke-width:1.44000006;stroke-linecap:round;stroke-linejoin:miter;stroke-miterlimit:10;stroke-dasharray:none;stroke-opacity:1" /><path
       d="M 159.6,15.12 L 161.04,22.08"
       id="path3294"
       style="fill:none;stroke:#000000;stroke-width:1.44000006;stroke-linecap:round;stroke-linejoin:miter;stroke-miterlimit:10;stroke-dasharray:none;stroke-opacity:1" /><path
       d="M 159.6,15.12 L 163.44,15.84"
       id="path3296"
       style="fill:none;stroke:#000000;stroke-width:1.44000006;stroke-linecap:round;stroke-linejoin:miter;stroke-miterlimit:10;stroke-dasharray:none;stroke-opacity:1" /><path
       d="M 23.04,175.2 L 21.12,172.56"
       id="path3298"
       style="fill:none;stroke:#000000;stroke-width:1.44000006;stroke-linecap:round;stroke-linejoin:miter;stroke-miterlimit:10;stroke-dasharray:none;stroke-opacity:1" /><path
       d="M 23.04,175.2 L 16.32,175.92"
       id="path3300"
       style="fill:none;stroke:#000000;stroke-width:1.44000006;stroke-linecap:round;stroke-linejoin:miter;stroke-miterlimit:10;stroke-dasharray:none;stroke-opacity:1" /><path
       d="M 20.4,181.44 L 16.32,175.92"
       id="path3302"
       style="fill:none;stroke:#000000;stroke-width:1.44000006;stroke-linecap:round;stroke-linejoin:miter;stroke-miterlimit:10;stroke-dasharray:none;stroke-opacity:1" /><path
       d="M 20.4,181.44 L 13.44,182.16"
       id="path3304"
       style="fill:none;stroke:#000000;stroke-width:1.44000006;stroke-linecap:round;stroke-linejoin:miter;stroke-miterlimit:10;stroke-dasharray:none;stroke-opacity:1" /><path
       d="M 17.76,187.68 L 13.44,182.16"
       id="path3306"
       style="fill:none;stroke:#000000;stroke-width:1.44000006;stroke-linecap:round;stroke-linejoin:miter;stroke-miterlimit:10;stroke-dasharray:none;stroke-opacity:1" /><path
       d="M 17.76,187.68 L 10.8,188.4"
       id="path3308"
       style="fill:none;stroke:#000000;stroke-width:1.44000006;stroke-linecap:round;stroke-linejoin:miter;stroke-miterlimit:10;stroke-dasharray:none;stroke-opacity:1" /><path
       d="M 15.12,193.92 L 10.8,188.4"
       id="path3310"
       style="fill:none;stroke:#000000;stroke-width:1.44000006;stroke-linecap:round;stroke-linejoin:miter;stroke-miterlimit:10;stroke-dasharray:none;stroke-opacity:1" /><path
       d="M 15.12,193.92 L 11.28,195.12"
       id="path3312"
       style="fill:none;stroke:#000000;stroke-width:1.44000006;stroke-linecap:round;stroke-linejoin:miter;stroke-miterlimit:10;stroke-dasharray:none;stroke-opacity:1" /></g></svg>